<mxfile host="Electron" modified="2023-12-27T10:58:31.458Z" agent="Mozilla/5.0 (X11; Linux x86_64) AppleWebKit/537.36 (KHTML, like Gecko) draw.io/22.1.11 Chrome/114.0.5735.289 Electron/25.9.8 Safari/537.36" etag="6_IKXkvlXpLVfU18l4v8" version="22.1.11" type="device">
  <diagram name="Страница — 1" id="rdJPi81iyjyXsliXh4Vw">
    <mxGraphModel dx="2424" dy="1428" grid="1" gridSize="10" guides="1" tooltips="1" connect="1" arrows="1" fold="1" page="1" pageScale="1" pageWidth="2900" pageHeight="700" math="0" shadow="0">
      <root>
        <mxCell id="0" />
        <mxCell id="1" parent="0" />
        <mxCell id="QiNylJVKQGGoiYYaniBf-22" value="" style="shape=tableRow;horizontal=0;startSize=0;swimlaneHead=0;swimlaneBody=0;strokeColor=inherit;top=0;left=0;bottom=0;right=0;collapsible=0;dropTarget=0;fillColor=none;points=[[0,0.5],[1,0.5]];portConstraint=eastwest;fontSize=16;" parent="1" vertex="1">
          <mxGeometry x="50" y="113" width="300" height="100" as="geometry" />
        </mxCell>
        <mxCell id="QiNylJVKQGGoiYYaniBf-28" value="Раздельные пункты" style="rounded=0;whiteSpace=wrap;html=1;" parent="1" vertex="1">
          <mxGeometry x="40" y="140" width="200" height="40" as="geometry" />
        </mxCell>
        <mxCell id="QiNylJVKQGGoiYYaniBf-29" value="Стрелочные переводы, мосты, тоннели, переезды" style="rounded=0;whiteSpace=wrap;html=1;" parent="1" vertex="1">
          <mxGeometry x="40" y="180" width="200" height="80" as="geometry" />
        </mxCell>
        <mxCell id="QiNylJVKQGGoiYYaniBf-30" value="Продольный профиль" style="rounded=0;whiteSpace=wrap;html=1;" parent="1" vertex="1">
          <mxGeometry x="40" y="260" width="200" height="40" as="geometry" />
        </mxCell>
        <mxCell id="QiNylJVKQGGoiYYaniBf-31" value="" style="shape=tableRow;horizontal=0;startSize=0;swimlaneHead=0;swimlaneBody=0;strokeColor=inherit;top=0;left=0;bottom=0;right=0;collapsible=0;dropTarget=0;fillColor=none;points=[[0,0.5],[1,0.5]];portConstraint=eastwest;fontSize=16;" parent="1" vertex="1">
          <mxGeometry x="50" y="293" width="180" height="100" as="geometry" />
        </mxCell>
        <mxCell id="QiNylJVKQGGoiYYaniBf-32" value="План линии" style="rounded=0;whiteSpace=wrap;html=1;" parent="1" vertex="1">
          <mxGeometry x="40" y="300" width="200" height="70" as="geometry" />
        </mxCell>
        <mxCell id="QiNylJVKQGGoiYYaniBf-33" value="Установленная скорость (пасс./гр.), км/ч" style="rounded=0;whiteSpace=wrap;html=1;" parent="1" vertex="1">
          <mxGeometry x="40" y="370" width="200" height="40" as="geometry" />
        </mxCell>
        <mxCell id="QiNylJVKQGGoiYYaniBf-34" value="&lt;font style=&quot;font-size: 10px;&quot;&gt;Грузонапряженность (млн. тонн брутто/км в год) / класс и спец-я линии / код группы&lt;/font&gt;" style="rounded=0;whiteSpace=wrap;html=1;" parent="1" vertex="1">
          <mxGeometry x="40" y="483" width="200" height="40" as="geometry" />
        </mxCell>
        <mxCell id="QiNylJVKQGGoiYYaniBf-35" value="" style="shape=tableRow;horizontal=0;startSize=0;swimlaneHead=0;swimlaneBody=0;strokeColor=inherit;top=0;left=0;bottom=0;right=0;collapsible=0;dropTarget=0;fillColor=none;points=[[0,0.5],[1,0.5]];portConstraint=eastwest;fontSize=16;" parent="1" vertex="1">
          <mxGeometry x="50" y="516" width="180" height="100" as="geometry" />
        </mxCell>
        <mxCell id="QiNylJVKQGGoiYYaniBf-36" value="&lt;font style=&quot;font-size: 10px;&quot;&gt;Тип рельсов, тип пути, категория рельсов, термоупрочнение, завод-изготовитель, год укладки&lt;/font&gt;" style="rounded=0;whiteSpace=wrap;html=1;" parent="1" vertex="1">
          <mxGeometry x="40" y="523" width="200" height="40" as="geometry" />
        </mxCell>
        <mxCell id="QiNylJVKQGGoiYYaniBf-37" value="&lt;font style=&quot;font-size: 10px;&quot;&gt;Тип скрепления,&amp;nbsp;&lt;br&gt;род шпал, кол-во шпал, &lt;br&gt;род балласта, высота призмы&lt;/font&gt;" style="rounded=0;whiteSpace=wrap;html=1;" parent="1" vertex="1">
          <mxGeometry x="40" y="563" width="200" height="40" as="geometry" />
        </mxCell>
        <mxCell id="QiNylJVKQGGoiYYaniBf-38" value="&lt;font style=&quot;font-size: 10px;&quot;&gt;Год и тип капитального ремонта, год и тип промежуточного ремонта&lt;/font&gt;" style="rounded=0;whiteSpace=wrap;html=1;" parent="1" vertex="1">
          <mxGeometry x="40" y="603" width="200" height="40" as="geometry" />
        </mxCell>
        <mxCell id="QiNylJVKQGGoiYYaniBf-39" value="" style="shape=tableRow;horizontal=0;startSize=0;swimlaneHead=0;swimlaneBody=0;strokeColor=inherit;top=0;left=0;bottom=0;right=0;collapsible=0;dropTarget=0;fillColor=none;points=[[0,0.5],[1,0.5]];portConstraint=eastwest;fontSize=16;" parent="1" vertex="1">
          <mxGeometry x="50" y="563" width="180" height="100" as="geometry" />
        </mxCell>
        <mxCell id="QiNylJVKQGGoiYYaniBf-40" value="Предприятие и линейные участки служб П и Ш, обслуживающие км" style="rounded=0;whiteSpace=wrap;html=1;" parent="1" vertex="1">
          <mxGeometry x="40" y="643" width="200" height="40" as="geometry" />
        </mxCell>
        <mxCell id="QiNylJVKQGGoiYYaniBf-43" value="" style="shape=tableRow;horizontal=0;startSize=0;swimlaneHead=0;swimlaneBody=0;strokeColor=inherit;top=0;left=0;bottom=0;right=0;collapsible=0;dropTarget=0;fillColor=none;points=[[0,0.5],[1,0.5]];portConstraint=eastwest;fontSize=16;" parent="1" vertex="1">
          <mxGeometry x="50" y="593" width="180" height="100" as="geometry" />
        </mxCell>
        <mxCell id="QiNylJVKQGGoiYYaniBf-47" value="&lt;font style=&quot;font-size: 12px;&quot;&gt;Номер километра &lt;br&gt;(длина нестандартного километра)&lt;/font&gt;" style="rounded=0;whiteSpace=wrap;html=1;" parent="1" vertex="1">
          <mxGeometry x="40" y="410" width="200" height="40" as="geometry" />
        </mxCell>
        <mxCell id="QiNylJVKQGGoiYYaniBf-48" value="Пропущенный тоннаж &lt;br&gt;(млн. тонн брутто на км)" style="rounded=0;whiteSpace=wrap;html=1;" parent="1" vertex="1">
          <mxGeometry x="40" y="450" width="200" height="40" as="geometry" />
        </mxCell>
        <mxCell id="QiNylJVKQGGoiYYaniBf-71" value="0" style="rounded=0;whiteSpace=wrap;html=1;" parent="1" vertex="1">
          <mxGeometry x="240" y="410" width="160" height="40" as="geometry" />
        </mxCell>
        <mxCell id="QiNylJVKQGGoiYYaniBf-72" value="1" style="rounded=0;whiteSpace=wrap;html=1;" parent="1" vertex="1">
          <mxGeometry x="400" y="410" width="160" height="40" as="geometry" />
        </mxCell>
        <mxCell id="QiNylJVKQGGoiYYaniBf-73" value="2" style="rounded=0;whiteSpace=wrap;html=1;" parent="1" vertex="1">
          <mxGeometry x="560" y="410" width="160" height="40" as="geometry" />
        </mxCell>
        <mxCell id="QiNylJVKQGGoiYYaniBf-74" value="3" style="rounded=0;whiteSpace=wrap;html=1;" parent="1" vertex="1">
          <mxGeometry x="720" y="410" width="160" height="40" as="geometry" />
        </mxCell>
        <mxCell id="QiNylJVKQGGoiYYaniBf-75" value="4" style="rounded=0;whiteSpace=wrap;html=1;" parent="1" vertex="1">
          <mxGeometry x="880" y="410" width="160" height="40" as="geometry" />
        </mxCell>
        <mxCell id="QiNylJVKQGGoiYYaniBf-76" value="5" style="rounded=0;whiteSpace=wrap;html=1;" parent="1" vertex="1">
          <mxGeometry x="1040" y="410" width="160" height="40" as="geometry" />
        </mxCell>
        <mxCell id="QiNylJVKQGGoiYYaniBf-77" value="6" style="rounded=0;whiteSpace=wrap;html=1;" parent="1" vertex="1">
          <mxGeometry x="1200" y="410" width="160" height="40" as="geometry" />
        </mxCell>
        <mxCell id="0Uzv47MZa6qNcgDxZGDY-1" value="" style="endArrow=none;html=1;rounded=0;" parent="1" edge="1">
          <mxGeometry width="50" height="50" relative="1" as="geometry">
            <mxPoint x="240" y="160" as="sourcePoint" />
            <mxPoint x="2740" y="160" as="targetPoint" />
          </mxGeometry>
        </mxCell>
        <mxCell id="0Uzv47MZa6qNcgDxZGDY-2" value="" style="endArrow=none;html=1;rounded=0;" parent="1" edge="1">
          <mxGeometry width="50" height="50" relative="1" as="geometry">
            <mxPoint x="250" y="222.99718875502026" as="sourcePoint" />
            <mxPoint x="2740" y="220" as="targetPoint" />
          </mxGeometry>
        </mxCell>
        <mxCell id="0Uzv47MZa6qNcgDxZGDY-8" value="" style="endArrow=none;html=1;rounded=0;exitX=1;exitY=0.5;exitDx=0;exitDy=0;entryX=0.5;entryY=1;entryDx=0;entryDy=0;" parent="1" target="0Uzv47MZa6qNcgDxZGDY-9" edge="1">
          <mxGeometry width="50" height="50" relative="1" as="geometry">
            <mxPoint x="444" y="160" as="sourcePoint" />
            <mxPoint x="449" y="140" as="targetPoint" />
          </mxGeometry>
        </mxCell>
        <mxCell id="0Uzv47MZa6qNcgDxZGDY-9" value="" style="ellipse;whiteSpace=wrap;html=1;aspect=fixed;movable=1;resizable=1;rotatable=1;deletable=1;editable=1;locked=0;connectable=1;" parent="1" vertex="1">
          <mxGeometry x="433.9899999999998" y="120" width="20" height="20" as="geometry" />
        </mxCell>
        <mxCell id="0Uzv47MZa6qNcgDxZGDY-10" value="" style="endArrow=none;html=1;rounded=0;exitX=0.5;exitY=1;exitDx=0;exitDy=0;entryX=0.5;entryY=0;entryDx=0;entryDy=0;movable=1;resizable=1;rotatable=1;deletable=1;editable=1;locked=0;connectable=1;" parent="1" source="0Uzv47MZa6qNcgDxZGDY-9" target="0Uzv47MZa6qNcgDxZGDY-9" edge="1">
          <mxGeometry width="50" height="50" relative="1" as="geometry">
            <mxPoint x="441.97000000000025" y="150" as="sourcePoint" />
            <mxPoint x="491.97000000000025" y="100" as="targetPoint" />
          </mxGeometry>
        </mxCell>
        <mxCell id="0Uzv47MZa6qNcgDxZGDY-11" value="Где-либо" style="text;html=1;strokeColor=none;fillColor=none;align=center;verticalAlign=middle;whiteSpace=wrap;rounded=0;" parent="1" vertex="1">
          <mxGeometry x="410" y="90" width="70" height="30" as="geometry" />
        </mxCell>
        <mxCell id="0Uzv47MZa6qNcgDxZGDY-16" value="" style="endArrow=none;html=1;rounded=0;strokeWidth=5;" parent="1" edge="1">
          <mxGeometry width="50" height="50" relative="1" as="geometry">
            <mxPoint x="370" y="160" as="sourcePoint" />
            <mxPoint x="600" y="160" as="targetPoint" />
          </mxGeometry>
        </mxCell>
        <mxCell id="0Uzv47MZa6qNcgDxZGDY-18" value="00004 Где-либо - Здеся, 1 путь" style="text;html=1;strokeColor=none;fillColor=none;align=center;verticalAlign=middle;whiteSpace=wrap;rounded=0;fontSize=37;" parent="1" vertex="1">
          <mxGeometry x="470" y="40" width="780" height="30" as="geometry" />
        </mxCell>
        <mxCell id="0Uzv47MZa6qNcgDxZGDY-33" value="Стреломестное" style="text;html=1;strokeColor=none;fillColor=none;align=center;verticalAlign=middle;whiteSpace=wrap;rounded=0;" parent="1" vertex="1">
          <mxGeometry x="1270" y="90" width="70" height="30" as="geometry" />
        </mxCell>
        <mxCell id="0Uzv47MZa6qNcgDxZGDY-34" value="" style="rounded=0;whiteSpace=wrap;html=1;" parent="1" vertex="1">
          <mxGeometry x="1295" y="120" width="20" height="10" as="geometry" />
        </mxCell>
        <mxCell id="0Uzv47MZa6qNcgDxZGDY-35" value="" style="endArrow=none;html=1;rounded=0;entryX=0.5;entryY=0;entryDx=0;entryDy=0;" parent="1" target="0Uzv47MZa6qNcgDxZGDY-34" edge="1">
          <mxGeometry width="50" height="50" relative="1" as="geometry">
            <mxPoint x="1305" y="160" as="sourcePoint" />
            <mxPoint x="1340" y="100" as="targetPoint" />
          </mxGeometry>
        </mxCell>
        <mxCell id="0Uzv47MZa6qNcgDxZGDY-36" value="" style="endArrow=none;html=1;rounded=0;" parent="1" edge="1">
          <mxGeometry width="50" height="50" relative="1" as="geometry">
            <mxPoint x="1317" y="230" as="sourcePoint" />
            <mxPoint x="1310" y="222" as="targetPoint" />
          </mxGeometry>
        </mxCell>
        <mxCell id="0Uzv47MZa6qNcgDxZGDY-37" value="" style="endArrow=none;html=1;rounded=0;" parent="1" edge="1">
          <mxGeometry width="50" height="50" relative="1" as="geometry">
            <mxPoint x="1313" y="226" as="sourcePoint" />
            <mxPoint x="1316" y="222" as="targetPoint" />
          </mxGeometry>
        </mxCell>
        <mxCell id="0Uzv47MZa6qNcgDxZGDY-38" value="стр. № 8" style="text;html=1;strokeColor=none;fillColor=none;align=center;verticalAlign=middle;whiteSpace=wrap;rounded=0;" parent="1" vertex="1">
          <mxGeometry x="1280" y="189" width="70" height="30" as="geometry" />
        </mxCell>
        <mxCell id="0Uzv47MZa6qNcgDxZGDY-62" value="2" style="text;html=1;strokeColor=none;fillColor=none;align=center;verticalAlign=middle;whiteSpace=wrap;rounded=0;" parent="1" vertex="1">
          <mxGeometry x="370" y="212" width="20" height="7" as="geometry" />
        </mxCell>
        <mxCell id="0Uzv47MZa6qNcgDxZGDY-63" value="1" style="text;html=1;strokeColor=none;fillColor=none;align=center;verticalAlign=middle;whiteSpace=wrap;rounded=0;" parent="1" vertex="1">
          <mxGeometry x="570" y="209" width="20" height="7" as="geometry" />
        </mxCell>
        <mxCell id="0Uzv47MZa6qNcgDxZGDY-64" value="" style="endArrow=none;html=1;rounded=0;" parent="1" edge="1">
          <mxGeometry width="50" height="50" relative="1" as="geometry">
            <mxPoint x="384" y="222" as="sourcePoint" />
            <mxPoint x="390" y="213" as="targetPoint" />
          </mxGeometry>
        </mxCell>
        <mxCell id="0Uzv47MZa6qNcgDxZGDY-65" value="" style="endArrow=none;html=1;rounded=0;" parent="1" edge="1">
          <mxGeometry width="50" height="50" relative="1" as="geometry">
            <mxPoint x="576" y="222" as="sourcePoint" />
            <mxPoint x="570" y="213" as="targetPoint" />
          </mxGeometry>
        </mxCell>
        <mxCell id="iH_aEqxw_GgNqT9NQLik-144" value="" style="rounded=0;whiteSpace=wrap;html=1;" parent="1" vertex="1">
          <mxGeometry x="284.5999999999999" y="260" width="76.8" height="40" as="geometry" />
        </mxCell>
        <mxCell id="iH_aEqxw_GgNqT9NQLik-145" value="" style="endArrow=none;html=1;rounded=0;entryX=1;entryY=0;entryDx=0;entryDy=0;" parent="1" target="iH_aEqxw_GgNqT9NQLik-144" edge="1">
          <mxGeometry width="50" height="50" relative="1" as="geometry">
            <mxPoint x="284.5999999999999" y="300" as="sourcePoint" />
            <mxPoint x="334.5999999999999" y="250" as="targetPoint" />
          </mxGeometry>
        </mxCell>
        <mxCell id="iH_aEqxw_GgNqT9NQLik-146" value="2.0" style="text;html=1;strokeColor=none;fillColor=none;align=center;verticalAlign=middle;whiteSpace=wrap;rounded=0;" parent="1" vertex="1">
          <mxGeometry x="288.0799999999999" y="265" width="20" height="10" as="geometry" />
        </mxCell>
        <mxCell id="iH_aEqxw_GgNqT9NQLik-149" value="" style="rounded=0;whiteSpace=wrap;html=1;" parent="1" vertex="1">
          <mxGeometry x="361.4000000000001" y="260" width="114.4" height="40" as="geometry" />
        </mxCell>
        <mxCell id="iH_aEqxw_GgNqT9NQLik-150" value="" style="endArrow=none;html=1;rounded=0;entryX=1;entryY=0.5;entryDx=0;entryDy=0;exitX=0;exitY=0.5;exitDx=0;exitDy=0;" parent="1" source="iH_aEqxw_GgNqT9NQLik-149" target="iH_aEqxw_GgNqT9NQLik-149" edge="1">
          <mxGeometry width="50" height="50" relative="1" as="geometry">
            <mxPoint x="361.4000000000001" y="300" as="sourcePoint" />
            <mxPoint x="411.4000000000001" y="250" as="targetPoint" />
          </mxGeometry>
        </mxCell>
        <mxCell id="iH_aEqxw_GgNqT9NQLik-151" value="0.0" style="text;html=1;strokeColor=none;fillColor=none;align=center;verticalAlign=middle;whiteSpace=wrap;rounded=0;" parent="1" vertex="1">
          <mxGeometry x="408.5999999999999" y="265" width="20" height="10" as="geometry" />
        </mxCell>
        <mxCell id="iH_aEqxw_GgNqT9NQLik-152" value="715" style="text;html=1;strokeColor=none;fillColor=none;align=center;verticalAlign=middle;whiteSpace=wrap;rounded=0;" parent="1" vertex="1">
          <mxGeometry x="408.5999999999999" y="285" width="20" height="10" as="geometry" />
        </mxCell>
        <mxCell id="iH_aEqxw_GgNqT9NQLik-157" value="" style="rounded=0;whiteSpace=wrap;html=1;" parent="1" vertex="1">
          <mxGeometry x="526.6999999999998" y="260" width="146.3" height="40" as="geometry" />
        </mxCell>
        <mxCell id="iH_aEqxw_GgNqT9NQLik-158" value="" style="endArrow=none;html=1;rounded=0;entryX=1;entryY=1;entryDx=0;entryDy=0;" parent="1" target="iH_aEqxw_GgNqT9NQLik-157" edge="1">
          <mxGeometry width="50" height="50" relative="1" as="geometry">
            <mxPoint x="526.6999999999998" y="260" as="sourcePoint" />
            <mxPoint x="626.7000000000007" y="220" as="targetPoint" />
          </mxGeometry>
        </mxCell>
        <mxCell id="iH_aEqxw_GgNqT9NQLik-159" value="914" style="text;html=1;strokeColor=none;fillColor=none;align=center;verticalAlign=middle;whiteSpace=wrap;rounded=0;" parent="1" vertex="1">
          <mxGeometry x="532.7799999999997" y="285" width="20" height="10" as="geometry" />
        </mxCell>
        <mxCell id="iH_aEqxw_GgNqT9NQLik-160" value="1.8" style="text;html=1;strokeColor=none;fillColor=none;align=center;verticalAlign=middle;whiteSpace=wrap;rounded=0;" parent="1" vertex="1">
          <mxGeometry x="650" y="265" width="20" height="10" as="geometry" />
        </mxCell>
        <mxCell id="iH_aEqxw_GgNqT9NQLik-161" value="" style="rounded=0;whiteSpace=wrap;html=1;" parent="1" vertex="1">
          <mxGeometry x="673" y="260" width="142.4" height="40" as="geometry" />
        </mxCell>
        <mxCell id="iH_aEqxw_GgNqT9NQLik-162" value="" style="endArrow=none;html=1;rounded=0;entryX=1;entryY=1;entryDx=0;entryDy=0;" parent="1" target="iH_aEqxw_GgNqT9NQLik-161" edge="1">
          <mxGeometry width="50" height="50" relative="1" as="geometry">
            <mxPoint x="673" y="260" as="sourcePoint" />
            <mxPoint x="773" y="220" as="targetPoint" />
          </mxGeometry>
        </mxCell>
        <mxCell id="iH_aEqxw_GgNqT9NQLik-163" value="890" style="text;html=1;strokeColor=none;fillColor=none;align=center;verticalAlign=middle;whiteSpace=wrap;rounded=0;" parent="1" vertex="1">
          <mxGeometry x="679.0799999999999" y="285" width="20" height="10" as="geometry" />
        </mxCell>
        <mxCell id="iH_aEqxw_GgNqT9NQLik-164" value="2.7" style="text;html=1;strokeColor=none;fillColor=none;align=center;verticalAlign=middle;whiteSpace=wrap;rounded=0;" parent="1" vertex="1">
          <mxGeometry x="795.3999999999987" y="265" width="20" height="10" as="geometry" />
        </mxCell>
        <mxCell id="iH_aEqxw_GgNqT9NQLik-169" value="" style="rounded=0;whiteSpace=wrap;html=1;" parent="1" vertex="1">
          <mxGeometry x="1168.1999999999998" y="260" width="114.4" height="40" as="geometry" />
        </mxCell>
        <mxCell id="iH_aEqxw_GgNqT9NQLik-170" value="" style="endArrow=none;html=1;rounded=0;entryX=1;entryY=0.5;entryDx=0;entryDy=0;exitX=0;exitY=0.5;exitDx=0;exitDy=0;" parent="1" source="iH_aEqxw_GgNqT9NQLik-169" target="iH_aEqxw_GgNqT9NQLik-169" edge="1">
          <mxGeometry width="50" height="50" relative="1" as="geometry">
            <mxPoint x="1196.5599999999995" y="300" as="sourcePoint" />
            <mxPoint x="1246.5599999999995" y="250" as="targetPoint" />
          </mxGeometry>
        </mxCell>
        <mxCell id="iH_aEqxw_GgNqT9NQLik-171" value="0.0" style="text;html=1;strokeColor=none;fillColor=none;align=center;verticalAlign=middle;whiteSpace=wrap;rounded=0;" parent="1" vertex="1">
          <mxGeometry x="1215.3999999999996" y="265" width="20" height="10" as="geometry" />
        </mxCell>
        <mxCell id="iH_aEqxw_GgNqT9NQLik-172" value="715" style="text;html=1;strokeColor=none;fillColor=none;align=center;verticalAlign=middle;whiteSpace=wrap;rounded=0;" parent="1" vertex="1">
          <mxGeometry x="1215.3999999999996" y="285" width="20" height="10" as="geometry" />
        </mxCell>
        <mxCell id="iH_aEqxw_GgNqT9NQLik-173" value="" style="rounded=0;whiteSpace=wrap;html=1;" parent="1" vertex="1">
          <mxGeometry x="1282.6" y="260" width="32" height="40" as="geometry" />
        </mxCell>
        <mxCell id="iH_aEqxw_GgNqT9NQLik-174" value="" style="endArrow=none;html=1;rounded=0;entryX=1;entryY=1;entryDx=0;entryDy=0;" parent="1" target="iH_aEqxw_GgNqT9NQLik-173" edge="1">
          <mxGeometry width="50" height="50" relative="1" as="geometry">
            <mxPoint x="1282.6000000000004" y="260" as="sourcePoint" />
            <mxPoint x="1382.6000000000004" y="220" as="targetPoint" />
          </mxGeometry>
        </mxCell>
        <mxCell id="iH_aEqxw_GgNqT9NQLik-175" value="205" style="text;html=1;strokeColor=none;fillColor=none;align=center;verticalAlign=middle;whiteSpace=wrap;rounded=0;" parent="1" vertex="1">
          <mxGeometry x="1286.3000000000002" y="305" width="20" height="10" as="geometry" />
        </mxCell>
        <mxCell id="iH_aEqxw_GgNqT9NQLik-176" value="0.7" style="text;html=1;strokeColor=none;fillColor=none;align=center;verticalAlign=middle;whiteSpace=wrap;rounded=0;" parent="1" vertex="1">
          <mxGeometry x="1286.3" y="244" width="20" height="10" as="geometry" />
        </mxCell>
        <mxCell id="iH_aEqxw_GgNqT9NQLik-213" value="480" style="text;html=1;strokeColor=none;fillColor=none;align=center;verticalAlign=middle;whiteSpace=wrap;rounded=0;" parent="1" vertex="1">
          <mxGeometry x="337" y="285" width="20" height="10" as="geometry" />
        </mxCell>
        <mxCell id="16A_R8fPmNm19ENC-UtP-3" value="ИЧ-1, ПЧУ-1, ПД-1" style="rounded=0;whiteSpace=wrap;html=1;" parent="1" vertex="1">
          <mxGeometry x="240" y="643" width="2500" height="20" as="geometry" />
        </mxCell>
        <mxCell id="16A_R8fPmNm19ENC-UtP-4" value="ИЧ-1, ШЧУ-1" style="rounded=0;whiteSpace=wrap;html=1;" parent="1" vertex="1">
          <mxGeometry x="240" y="663" width="2500" height="17" as="geometry" />
        </mxCell>
        <mxCell id="hME5l4rsfuZXc2bHnHF4-18" value="" style="endArrow=none;html=1;rounded=0;" parent="1" edge="1">
          <mxGeometry width="50" height="50" relative="1" as="geometry">
            <mxPoint x="240" y="340" as="sourcePoint" />
            <mxPoint x="1310" y="340" as="targetPoint" />
          </mxGeometry>
        </mxCell>
        <mxCell id="hME5l4rsfuZXc2bHnHF4-34" value="51.7 / 1T / 2II&lt;span style=&quot;&quot;&gt;&lt;span style=&quot;&quot;&gt;&amp;nbsp; &amp;nbsp;&amp;nbsp;&lt;/span&gt;&lt;/span&gt;&lt;span style=&quot;&quot;&gt;&lt;span style=&quot;&quot;&gt;&amp;nbsp;&amp;nbsp;&amp;nbsp;&amp;nbsp;&lt;/span&gt;&lt;/span&gt;&lt;span style=&quot;&quot;&gt;&lt;span style=&quot;&quot;&gt;&amp;nbsp;&amp;nbsp;&amp;nbsp;&amp;nbsp;&lt;/span&gt;&lt;/span&gt;&lt;span style=&quot;&quot;&gt;&lt;span style=&quot;&quot;&gt;&amp;nbsp;&amp;nbsp;&amp;nbsp;&amp;nbsp;&lt;/span&gt;&lt;/span&gt;&lt;span style=&quot;&quot;&gt;&lt;span style=&quot;&quot;&gt;&amp;nbsp;&amp;nbsp;&amp;nbsp;&amp;nbsp;&lt;/span&gt;&lt;/span&gt;&lt;span style=&quot;&quot;&gt;&lt;span style=&quot;&quot;&gt;&amp;nbsp;&amp;nbsp;&amp;nbsp;&amp;nbsp;&lt;/span&gt;&lt;/span&gt;&lt;span style=&quot;&quot;&gt;&lt;span style=&quot;&quot;&gt;&amp;nbsp;&amp;nbsp;&amp;nbsp;&amp;nbsp;&lt;/span&gt;&lt;/span&gt;&lt;span style=&quot;&quot;&gt;&lt;span style=&quot;&quot;&gt;&amp;nbsp;&amp;nbsp;&amp;nbsp;&amp;nbsp;&lt;/span&gt;&lt;/span&gt;&lt;span style=&quot;&quot;&gt;&lt;span style=&quot;&quot;&gt;&amp;nbsp;&amp;nbsp;&amp;nbsp;&lt;span style=&quot;white-space: pre;&quot;&gt;&#x9;&lt;span style=&quot;white-space: pre;&quot;&gt;&#x9;&lt;/span&gt;&lt;span style=&quot;white-space: pre;&quot;&gt;&#x9;&lt;/span&gt;&lt;span style=&quot;white-space: pre;&quot;&gt;&#x9;&lt;/span&gt;&lt;span style=&quot;white-space: pre;&quot;&gt;&#x9;&lt;/span&gt;&lt;/span&gt;&lt;span style=&quot;white-space: pre;&quot;&gt;&#x9;&lt;/span&gt;&lt;span style=&quot;white-space: pre;&quot;&gt;&#x9;&lt;span style=&quot;white-space: pre;&quot;&gt;&#x9;&lt;/span&gt;&lt;span style=&quot;white-space: pre;&quot;&gt;&#x9;&lt;/span&gt;&lt;span style=&quot;white-space: pre;&quot;&gt;&#x9;&lt;/span&gt;&lt;/span&gt;&lt;span style=&quot;white-space: pre;&quot;&gt;&#x9;&lt;/span&gt;&lt;span style=&quot;white-space: pre;&quot;&gt;&#x9;&lt;/span&gt;&lt;span style=&quot;white-space: pre;&quot;&gt;&#x9;&lt;/span&gt;&amp;nbsp;&lt;/span&gt;&lt;/span&gt;&lt;span style=&quot;&quot;&gt;&lt;span style=&quot;&quot;&gt;&amp;nbsp;&amp;nbsp;&amp;nbsp;&amp;nbsp;&lt;/span&gt;&lt;/span&gt;&lt;span style=&quot;&quot;&gt;&lt;span style=&quot;&quot;&gt;&amp;nbsp;&amp;nbsp;&amp;nbsp;&amp;nbsp;&lt;/span&gt;&lt;/span&gt;&lt;span style=&quot;&quot;&gt;&lt;span style=&quot;&quot;&gt;&amp;nbsp;&amp;nbsp;&amp;nbsp;&amp;nbsp;&lt;/span&gt;&lt;/span&gt;51.7 / 1T / 2II" style="rounded=0;whiteSpace=wrap;html=1;" parent="1" vertex="1">
          <mxGeometry x="240" y="490" width="1070" height="33" as="geometry" />
        </mxCell>
        <mxCell id="hME5l4rsfuZXc2bHnHF4-58" value="КБ, Ж/Б, 1840, Щ, 35-50" style="rounded=0;whiteSpace=wrap;html=1;" parent="1" vertex="1">
          <mxGeometry x="240" y="563" width="160" height="40" as="geometry" />
        </mxCell>
        <mxCell id="hME5l4rsfuZXc2bHnHF4-59" value="КБ, Ж/Б, 1840, Щ, 35-50" style="rounded=0;whiteSpace=wrap;html=1;" parent="1" vertex="1">
          <mxGeometry x="400" y="563" width="160" height="40" as="geometry" />
        </mxCell>
        <mxCell id="hME5l4rsfuZXc2bHnHF4-60" value="КБ, Ж/Б, 1509, Щ, 35-50" style="rounded=0;whiteSpace=wrap;html=1;" parent="1" vertex="1">
          <mxGeometry x="580" y="563" width="140" height="40" as="geometry" />
        </mxCell>
        <mxCell id="hME5l4rsfuZXc2bHnHF4-61" value="КБ, Ж/Б, 1840, Щ, 35-50" style="rounded=0;whiteSpace=wrap;html=1;" parent="1" vertex="1">
          <mxGeometry x="720" y="563" width="160" height="40" as="geometry" />
        </mxCell>
        <mxCell id="hME5l4rsfuZXc2bHnHF4-62" value="КБ, Ж/Б, 1840, Щ, 35-50" style="rounded=0;whiteSpace=wrap;html=1;" parent="1" vertex="1">
          <mxGeometry x="880" y="563" width="160" height="40" as="geometry" />
        </mxCell>
        <mxCell id="hME5l4rsfuZXc2bHnHF4-63" value="КБ, Ж/Б, 1840, Щ, 35-50" style="rounded=0;whiteSpace=wrap;html=1;" parent="1" vertex="1">
          <mxGeometry x="1040" y="563" width="160" height="40" as="geometry" />
        </mxCell>
        <mxCell id="hME5l4rsfuZXc2bHnHF4-64" value="КБ, Ж/Б, 1851, Щ, 35-50" style="rounded=0;whiteSpace=wrap;html=1;" parent="1" vertex="1">
          <mxGeometry x="1200" y="563" width="160" height="40" as="geometry" />
        </mxCell>
        <mxCell id="hME5l4rsfuZXc2bHnHF4-83" value="" style="rounded=0;whiteSpace=wrap;html=1;" parent="1" vertex="1">
          <mxGeometry x="390" y="523" width="10" height="40" as="geometry" />
        </mxCell>
        <mxCell id="hME5l4rsfuZXc2bHnHF4-84" value="Р65, б/с, В(ОТ350СС), Т1, К,&amp;nbsp; октябрь-2016" style="rounded=0;whiteSpace=wrap;html=1;" parent="1" vertex="1">
          <mxGeometry x="400" y="523" width="170" height="40" as="geometry" />
        </mxCell>
        <mxCell id="hME5l4rsfuZXc2bHnHF4-85" value="" style="rounded=0;whiteSpace=wrap;html=1;" parent="1" vertex="1">
          <mxGeometry x="570" y="523" width="10" height="40" as="geometry" />
        </mxCell>
        <mxCell id="hME5l4rsfuZXc2bHnHF4-89" value="" style="rounded=0;whiteSpace=wrap;html=1;" parent="1" vertex="1">
          <mxGeometry x="560" y="563" width="10" height="40" as="geometry" />
        </mxCell>
        <mxCell id="hME5l4rsfuZXc2bHnHF4-90" value="" style="rounded=0;whiteSpace=wrap;html=1;" parent="1" vertex="1">
          <mxGeometry x="570" y="563" width="10" height="40" as="geometry" />
        </mxCell>
        <mxCell id="hME5l4rsfuZXc2bHnHF4-96" value="ППВ май-2021&lt;span style=&quot;&quot;&gt;&lt;span style=&quot;&quot;&gt;&amp;nbsp;&amp;nbsp;&amp;nbsp;&amp;nbsp;&lt;/span&gt;&lt;/span&gt;&lt;span style=&quot;&quot;&gt;&lt;span style=&quot;&quot;&gt;&amp;nbsp;&amp;nbsp;&amp;nbsp;&amp;nbsp;&lt;/span&gt;&lt;/span&gt;&lt;span style=&quot;&quot;&gt;&lt;span style=&quot;&quot;&gt;&amp;nbsp;&amp;nbsp;&lt;span style=&quot;white-space: pre;&quot;&gt;&#x9;&lt;/span&gt;&lt;span style=&quot;white-space: pre;&quot;&gt;&#x9;&lt;/span&gt;&lt;span style=&quot;white-space: pre;&quot;&gt;&#x9;&lt;/span&gt;&lt;span style=&quot;white-space: pre;&quot;&gt;&#x9;&lt;/span&gt;&lt;span style=&quot;white-space: pre;&quot;&gt;&#x9;&lt;/span&gt;&lt;span style=&quot;white-space: pre;&quot;&gt;&#x9;&lt;/span&gt;&lt;span style=&quot;white-space: pre;&quot;&gt;&#x9;&lt;span style=&quot;white-space: pre;&quot;&gt;&#x9;&lt;/span&gt;&lt;span style=&quot;white-space: pre;&quot;&gt;&#x9;&lt;/span&gt;&lt;span style=&quot;white-space: pre;&quot;&gt;&#x9;&lt;/span&gt;&lt;/span&gt;&lt;span style=&quot;white-space: pre;&quot;&gt;&#x9;&lt;/span&gt;&amp;nbsp;&amp;nbsp;&lt;/span&gt;&lt;/span&gt;&lt;span style=&quot;&quot;&gt;&lt;span style=&quot;&quot;&gt;&amp;nbsp;&amp;nbsp;&amp;nbsp;&amp;nbsp;&lt;/span&gt;&lt;/span&gt;&lt;span style=&quot;&quot;&gt;&lt;span style=&quot;&quot;&gt;&amp;nbsp;&amp;nbsp;&amp;nbsp;&amp;nbsp;&lt;/span&gt;&lt;/span&gt;&lt;span style=&quot;&quot;&gt;&lt;span style=&quot;&quot;&gt;&amp;nbsp;&amp;nbsp;&amp;nbsp;&amp;nbsp;&lt;/span&gt;&lt;/span&gt;&lt;span style=&quot;&quot;&gt;&lt;span style=&quot;&quot;&gt;&amp;nbsp;&amp;nbsp;&amp;nbsp;&amp;nbsp;&lt;/span&gt;&lt;/span&gt;&lt;span style=&quot;&quot;&gt;&lt;span style=&quot;&quot;&gt;&amp;nbsp;&amp;nbsp;&amp;nbsp;&amp;nbsp;&lt;/span&gt;&lt;/span&gt;&lt;span style=&quot;&quot;&gt;&lt;span style=&quot;&quot;&gt;&amp;nbsp;&amp;nbsp;&amp;nbsp;&amp;nbsp;&lt;/span&gt;&lt;/span&gt;&lt;span style=&quot;&quot;&gt;&lt;span style=&quot;&quot;&gt;&amp;nbsp;&amp;nbsp;&amp;nbsp;&amp;nbsp;&lt;/span&gt;&lt;/span&gt;ППВ май-2021&lt;span style=&quot;&quot;&gt;&lt;span style=&quot;white-space: pre;&quot;&gt;&amp;nbsp;&amp;nbsp;&amp;nbsp;&amp;nbsp;&lt;/span&gt;&lt;/span&gt;&lt;span style=&quot;&quot;&gt;&lt;span style=&quot;white-space: pre;&quot;&gt;&amp;nbsp;&amp;nbsp;&amp;nbsp;&amp;nbsp;&lt;/span&gt;&lt;/span&gt;&lt;span style=&quot;&quot;&gt;&lt;span style=&quot;white-space: pre;&quot;&gt;&amp;nbsp;&amp;nbsp;&amp;nbsp;&amp;nbsp;&lt;/span&gt;&lt;/span&gt;&lt;span style=&quot;&quot;&gt;&lt;span style=&quot;white-space: pre;&quot;&gt;&amp;nbsp;&amp;nbsp;&amp;nbsp;&amp;nbsp;&lt;/span&gt;&lt;/span&gt;&lt;span style=&quot;&quot;&gt;&lt;span style=&quot;white-space: pre;&quot;&gt;&amp;nbsp;&lt;span style=&quot;white-space: pre;&quot;&gt;&#x9;&lt;/span&gt;&lt;span style=&quot;white-space: pre;&quot;&gt;&#x9;&lt;/span&gt;&lt;span style=&quot;white-space: pre;&quot;&gt;&#x9;&lt;/span&gt;&lt;span style=&quot;white-space: pre;&quot;&gt;&#x9;&lt;/span&gt;&lt;span style=&quot;white-space: pre;&quot;&gt;&#x9;&lt;/span&gt;&lt;span style=&quot;white-space: pre;&quot;&gt;&#x9;&lt;/span&gt;&lt;span style=&quot;white-space: pre;&quot;&gt;&#x9;&lt;/span&gt;&lt;span style=&quot;white-space: pre;&quot;&gt;&#x9;&lt;/span&gt;&lt;span style=&quot;white-space: pre;&quot;&gt;&#x9;&lt;/span&gt;&lt;span style=&quot;white-space: pre;&quot;&gt;&#x9;&lt;/span&gt;&lt;span style=&quot;white-space: pre;&quot;&gt;&#x9;&lt;/span&gt;&amp;nbsp;&amp;nbsp;&amp;nbsp;&lt;/span&gt;&lt;/span&gt;&lt;span style=&quot;&quot;&gt;&lt;span style=&quot;white-space: pre;&quot;&gt;&amp;nbsp;&amp;nbsp;&amp;nbsp;&amp;nbsp;&lt;/span&gt;&lt;/span&gt;&lt;span style=&quot;&quot;&gt;&lt;span style=&quot;white-space: pre;&quot;&gt;&amp;nbsp;&amp;nbsp;&amp;nbsp;&amp;nbsp;&lt;/span&gt;&lt;/span&gt;&lt;span style=&quot;&quot;&gt;&lt;span style=&quot;white-space: pre;&quot;&gt;&amp;nbsp;&amp;nbsp;&amp;nbsp;&amp;nbsp;&lt;/span&gt;&lt;/span&gt;&lt;span style=&quot;&quot;&gt;&lt;span style=&quot;white-space: pre;&quot;&gt;&amp;nbsp;&amp;nbsp;&amp;nbsp;&amp;nbsp;&lt;/span&gt;&lt;/span&gt;&lt;span style=&quot;&quot;&gt;&lt;span style=&quot;white-space: pre;&quot;&gt;&amp;nbsp;&amp;nbsp;&amp;nbsp;&amp;nbsp;&lt;/span&gt;&lt;/span&gt;ППВ май-2021" style="rounded=0;whiteSpace=wrap;html=1;" parent="1" vertex="1">
          <mxGeometry x="240" y="623" width="1070" height="20" as="geometry" />
        </mxCell>
        <mxCell id="UyTudbnjLy_Pe1gl6Q5S-7" value="6" style="text;html=1;strokeColor=none;fillColor=none;align=center;verticalAlign=middle;whiteSpace=wrap;rounded=0;" parent="1" vertex="1">
          <mxGeometry x="390" y="224.5" width="20" height="7" as="geometry" />
        </mxCell>
        <mxCell id="UyTudbnjLy_Pe1gl6Q5S-8" value="" style="endArrow=none;html=1;rounded=0;" parent="1" edge="1">
          <mxGeometry width="50" height="50" relative="1" as="geometry">
            <mxPoint x="396" y="231.5" as="sourcePoint" />
            <mxPoint x="390" y="222.5" as="targetPoint" />
          </mxGeometry>
        </mxCell>
        <mxCell id="UyTudbnjLy_Pe1gl6Q5S-9" value="5" style="text;html=1;strokeColor=none;fillColor=none;align=center;verticalAlign=middle;whiteSpace=wrap;rounded=0;" parent="1" vertex="1">
          <mxGeometry x="550" y="224.5" width="20" height="7" as="geometry" />
        </mxCell>
        <mxCell id="UyTudbnjLy_Pe1gl6Q5S-10" value="" style="endArrow=none;html=1;rounded=0;" parent="1" edge="1">
          <mxGeometry width="50" height="50" relative="1" as="geometry">
            <mxPoint x="564" y="232" as="sourcePoint" />
            <mxPoint x="570" y="223" as="targetPoint" />
          </mxGeometry>
        </mxCell>
        <mxCell id="UyTudbnjLy_Pe1gl6Q5S-65" value="" style="rounded=0;whiteSpace=wrap;html=1;" parent="1" vertex="1">
          <mxGeometry x="240" y="260" width="44.6" height="40" as="geometry" />
        </mxCell>
        <mxCell id="UyTudbnjLy_Pe1gl6Q5S-66" value="" style="endArrow=none;html=1;rounded=0;entryX=1;entryY=1;entryDx=0;entryDy=0;exitX=0;exitY=0;exitDx=0;exitDy=0;" parent="1" source="UyTudbnjLy_Pe1gl6Q5S-65" target="UyTudbnjLy_Pe1gl6Q5S-65" edge="1">
          <mxGeometry width="50" height="50" relative="1" as="geometry">
            <mxPoint x="68.59999999999945" y="260" as="sourcePoint" />
            <mxPoint x="168.60000000000036" y="220" as="targetPoint" />
          </mxGeometry>
        </mxCell>
        <mxCell id="UyTudbnjLy_Pe1gl6Q5S-68" value="1.3" style="text;html=1;strokeColor=none;fillColor=none;align=center;verticalAlign=middle;whiteSpace=wrap;rounded=0;" parent="1" vertex="1">
          <mxGeometry x="261" y="265" width="20" height="10" as="geometry" />
        </mxCell>
        <mxCell id="UyTudbnjLy_Pe1gl6Q5S-69" value="" style="rounded=0;whiteSpace=wrap;html=1;" parent="1" vertex="1">
          <mxGeometry x="475.7999999999997" y="260" width="50.9" height="40" as="geometry" />
        </mxCell>
        <mxCell id="UyTudbnjLy_Pe1gl6Q5S-70" value="" style="endArrow=none;html=1;rounded=0;entryX=1;entryY=1;entryDx=0;entryDy=0;" parent="1" target="UyTudbnjLy_Pe1gl6Q5S-69" edge="1">
          <mxGeometry width="50" height="50" relative="1" as="geometry">
            <mxPoint x="475.7999999999997" y="260" as="sourcePoint" />
            <mxPoint x="575.8000000000006" y="220" as="targetPoint" />
          </mxGeometry>
        </mxCell>
        <mxCell id="UyTudbnjLy_Pe1gl6Q5S-71" value="318" style="text;html=1;strokeColor=none;fillColor=none;align=center;verticalAlign=middle;whiteSpace=wrap;rounded=0;" parent="1" vertex="1">
          <mxGeometry x="481.87999999999965" y="285" width="20" height="10" as="geometry" />
        </mxCell>
        <mxCell id="UyTudbnjLy_Pe1gl6Q5S-72" value="0.5" style="text;html=1;strokeColor=none;fillColor=none;align=center;verticalAlign=middle;whiteSpace=wrap;rounded=0;" parent="1" vertex="1">
          <mxGeometry x="501.87999999999874" y="265" width="20" height="10" as="geometry" />
        </mxCell>
        <mxCell id="UyTudbnjLy_Pe1gl6Q5S-73" value="" style="rounded=0;whiteSpace=wrap;html=1;" parent="1" vertex="1">
          <mxGeometry x="815.3999999999996" y="260" width="159.6" height="40" as="geometry" />
        </mxCell>
        <mxCell id="UyTudbnjLy_Pe1gl6Q5S-74" value="" style="endArrow=none;html=1;rounded=0;entryX=1;entryY=1;entryDx=0;entryDy=0;" parent="1" target="UyTudbnjLy_Pe1gl6Q5S-73" edge="1">
          <mxGeometry width="50" height="50" relative="1" as="geometry">
            <mxPoint x="815.3999999999996" y="260" as="sourcePoint" />
            <mxPoint x="915.3999999999996" y="220" as="targetPoint" />
          </mxGeometry>
        </mxCell>
        <mxCell id="UyTudbnjLy_Pe1gl6Q5S-75" value="997" style="text;html=1;strokeColor=none;fillColor=none;align=center;verticalAlign=middle;whiteSpace=wrap;rounded=0;" parent="1" vertex="1">
          <mxGeometry x="821.4799999999996" y="285" width="20" height="10" as="geometry" />
        </mxCell>
        <mxCell id="UyTudbnjLy_Pe1gl6Q5S-76" value="3.1" style="text;html=1;strokeColor=none;fillColor=none;align=center;verticalAlign=middle;whiteSpace=wrap;rounded=0;" parent="1" vertex="1">
          <mxGeometry x="949.9999999999982" y="265" width="20" height="10" as="geometry" />
        </mxCell>
        <mxCell id="UyTudbnjLy_Pe1gl6Q5S-77" value="" style="rounded=0;whiteSpace=wrap;html=1;" parent="1" vertex="1">
          <mxGeometry x="975" y="260" width="193.2" height="40" as="geometry" />
        </mxCell>
        <mxCell id="UyTudbnjLy_Pe1gl6Q5S-78" value="" style="endArrow=none;html=1;rounded=0;entryX=1;entryY=0;entryDx=0;entryDy=0;" parent="1" target="UyTudbnjLy_Pe1gl6Q5S-77" edge="1">
          <mxGeometry width="50" height="50" relative="1" as="geometry">
            <mxPoint x="975" y="300" as="sourcePoint" />
            <mxPoint x="1025" y="250" as="targetPoint" />
          </mxGeometry>
        </mxCell>
        <mxCell id="UyTudbnjLy_Pe1gl6Q5S-79" value="1.7" style="text;html=1;strokeColor=none;fillColor=none;align=center;verticalAlign=middle;whiteSpace=wrap;rounded=0;" parent="1" vertex="1">
          <mxGeometry x="980.0000000000009" y="265" width="20" height="10" as="geometry" />
        </mxCell>
        <mxCell id="UyTudbnjLy_Pe1gl6Q5S-80" value="1207" style="text;html=1;strokeColor=none;fillColor=none;align=center;verticalAlign=middle;whiteSpace=wrap;rounded=0;" parent="1" vertex="1">
          <mxGeometry x="1140.000000000001" y="285" width="20" height="10" as="geometry" />
        </mxCell>
        <mxCell id="ojxChSwKFFNu95mM_So2-3" value="Р65, б/с, В(ОТ350СС), Т1, К,&amp;nbsp; октябрь-2016" style="rounded=0;whiteSpace=wrap;html=1;" parent="1" vertex="1">
          <mxGeometry x="240" y="523" width="150" height="40" as="geometry" />
        </mxCell>
        <mxCell id="ojxChSwKFFNu95mM_So2-8" value="7" style="rounded=0;whiteSpace=wrap;html=1;" parent="1" vertex="1">
          <mxGeometry x="1360" y="410" width="160" height="40" as="geometry" />
        </mxCell>
        <mxCell id="ojxChSwKFFNu95mM_So2-9" value="8" style="rounded=0;whiteSpace=wrap;html=1;" parent="1" vertex="1">
          <mxGeometry x="1520" y="410" width="160" height="40" as="geometry" />
        </mxCell>
        <mxCell id="ojxChSwKFFNu95mM_So2-10" value="9" style="rounded=0;whiteSpace=wrap;html=1;" parent="1" vertex="1">
          <mxGeometry x="1680" y="410" width="160" height="40" as="geometry" />
        </mxCell>
        <mxCell id="ojxChSwKFFNu95mM_So2-11" value="10" style="rounded=0;whiteSpace=wrap;html=1;" parent="1" vertex="1">
          <mxGeometry x="1840" y="410" width="160" height="40" as="geometry" />
        </mxCell>
        <mxCell id="ojxChSwKFFNu95mM_So2-12" value="11" style="rounded=0;whiteSpace=wrap;html=1;" parent="1" vertex="1">
          <mxGeometry x="2000" y="410" width="160" height="40" as="geometry" />
        </mxCell>
        <mxCell id="ojxChSwKFFNu95mM_So2-13" value="12" style="rounded=0;whiteSpace=wrap;html=1;" parent="1" vertex="1">
          <mxGeometry x="2160" y="410" width="160" height="40" as="geometry" />
        </mxCell>
        <mxCell id="ojxChSwKFFNu95mM_So2-14" value="13" style="rounded=0;whiteSpace=wrap;html=1;" parent="1" vertex="1">
          <mxGeometry x="2320" y="410" width="160" height="40" as="geometry" />
        </mxCell>
        <mxCell id="ojxChSwKFFNu95mM_So2-15" value="14" style="rounded=0;whiteSpace=wrap;html=1;" parent="1" vertex="1">
          <mxGeometry x="2480" y="410" width="160" height="40" as="geometry" />
        </mxCell>
        <mxCell id="ojxChSwKFFNu95mM_So2-16" value="15" style="rounded=0;whiteSpace=wrap;html=1;" parent="1" vertex="1">
          <mxGeometry x="2640" y="410" width="100" height="40" as="geometry" />
        </mxCell>
        <mxCell id="ojxChSwKFFNu95mM_So2-17" value="0,3 / 4Г / 4V&lt;span style=&quot;&quot;&gt;&lt;span style=&quot;&quot;&gt;&amp;nbsp; &amp;nbsp;&amp;nbsp;&lt;/span&gt;&lt;/span&gt;&lt;span style=&quot;&quot;&gt;&lt;span style=&quot;&quot;&gt;&amp;nbsp;&amp;nbsp;&amp;nbsp;&amp;nbsp;&lt;/span&gt;&lt;/span&gt;&lt;span style=&quot;&quot;&gt;&lt;span style=&quot;&quot;&gt;&amp;nbsp;&amp;nbsp;&amp;nbsp;&amp;nbsp;&lt;/span&gt;&lt;/span&gt;&lt;span style=&quot;&quot;&gt;&lt;span style=&quot;&quot;&gt;&amp;nbsp;&amp;nbsp;&amp;nbsp;&amp;nbsp;&lt;/span&gt;&lt;/span&gt;&lt;span style=&quot;&quot;&gt;&lt;span style=&quot;&quot;&gt;&amp;nbsp;&amp;nbsp;&amp;nbsp;&amp;nbsp;&lt;/span&gt;&lt;/span&gt;&lt;span style=&quot;&quot;&gt;&lt;span style=&quot;&quot;&gt;&amp;nbsp;&amp;nbsp;&amp;nbsp;&amp;nbsp;&lt;/span&gt;&lt;/span&gt;&lt;span style=&quot;&quot;&gt;&lt;span style=&quot;&quot;&gt;&amp;nbsp;&amp;nbsp;&amp;nbsp;&amp;nbsp;&lt;/span&gt;&lt;/span&gt;&lt;span style=&quot;&quot;&gt;&lt;span style=&quot;&quot;&gt;&amp;nbsp;&amp;nbsp;&amp;nbsp;&amp;nbsp;&lt;/span&gt;&lt;/span&gt;&lt;span style=&quot;&quot;&gt;&lt;span style=&quot;&quot;&gt;&amp;nbsp;&amp;nbsp;&amp;nbsp;&lt;span style=&quot;white-space: pre;&quot;&gt;&#x9;&lt;span style=&quot;white-space: pre;&quot;&gt;&#x9;&lt;/span&gt;&lt;span style=&quot;white-space: pre;&quot;&gt;&#x9;&lt;/span&gt;&lt;span style=&quot;white-space: pre;&quot;&gt;&#x9;&lt;/span&gt;&lt;span style=&quot;white-space: pre;&quot;&gt;&#x9;&lt;/span&gt;&lt;/span&gt;&lt;span style=&quot;white-space: pre;&quot;&gt;&#x9;&lt;/span&gt;&lt;span style=&quot;white-space: pre;&quot;&gt;&#x9;&lt;span style=&quot;white-space: pre;&quot;&gt;&#x9;&lt;/span&gt;&lt;span style=&quot;white-space: pre;&quot;&gt;&#x9;&lt;/span&gt;&lt;span style=&quot;white-space: pre;&quot;&gt;&#x9;&lt;/span&gt;&lt;/span&gt;&lt;span style=&quot;white-space: pre;&quot;&gt;&#x9;&lt;/span&gt;&lt;span style=&quot;white-space: pre;&quot;&gt;&#x9;&lt;/span&gt;&lt;span style=&quot;white-space: pre;&quot;&gt;&#x9;&lt;/span&gt;&amp;nbsp;&lt;/span&gt;&lt;/span&gt;&lt;span style=&quot;&quot;&gt;&lt;span style=&quot;&quot;&gt;&amp;nbsp;&amp;nbsp;&amp;nbsp;&amp;nbsp;&lt;/span&gt;&lt;/span&gt;&lt;span style=&quot;&quot;&gt;&lt;span style=&quot;&quot;&gt;&amp;nbsp;&amp;nbsp;&amp;nbsp;&amp;nbsp;&lt;/span&gt;&lt;/span&gt;&lt;span style=&quot;&quot;&gt;&lt;span style=&quot;&quot;&gt;&amp;nbsp;&amp;nbsp;&amp;nbsp;&amp;nbsp;&lt;/span&gt;&lt;/span&gt;0,3&amp;nbsp; / 4Г / 4V" style="rounded=0;whiteSpace=wrap;html=1;" parent="1" vertex="1">
          <mxGeometry x="1310" y="490" width="1430" height="33" as="geometry" />
        </mxCell>
        <mxCell id="ojxChSwKFFNu95mM_So2-18" value="Р65, б/с, В(ОТ350СС), Т1, К,&amp;nbsp; октябрь-2016" style="rounded=0;whiteSpace=wrap;html=1;" parent="1" vertex="1">
          <mxGeometry x="580" y="523" width="720" height="40" as="geometry" />
        </mxCell>
        <mxCell id="ojxChSwKFFNu95mM_So2-19" value="" style="rounded=0;whiteSpace=wrap;html=1;" parent="1" vertex="1">
          <mxGeometry x="1300" y="523" width="10" height="40" as="geometry" />
        </mxCell>
        <mxCell id="ojxChSwKFFNu95mM_So2-20" value="Р65, б/с, В(ОТ350СС), Т1, Т,&amp;nbsp; июль-2013" style="rounded=0;whiteSpace=wrap;html=1;" parent="1" vertex="1">
          <mxGeometry x="1310" y="523" width="1430" height="40" as="geometry" />
        </mxCell>
        <mxCell id="ojxChSwKFFNu95mM_So2-21" value="Здеся" style="text;html=1;strokeColor=none;fillColor=none;align=center;verticalAlign=middle;whiteSpace=wrap;rounded=0;" parent="1" vertex="1">
          <mxGeometry x="2515.2400000000002" y="85" width="70" height="30" as="geometry" />
        </mxCell>
        <mxCell id="ojxChSwKFFNu95mM_So2-22" value="" style="endArrow=none;html=1;rounded=0;strokeWidth=5;" parent="1" edge="1">
          <mxGeometry width="50" height="50" relative="1" as="geometry">
            <mxPoint x="2450" y="161" as="sourcePoint" />
            <mxPoint x="2740.24" y="161" as="targetPoint" />
          </mxGeometry>
        </mxCell>
        <mxCell id="ojxChSwKFFNu95mM_So2-23" value="2" style="text;html=1;strokeColor=none;fillColor=none;align=center;verticalAlign=middle;whiteSpace=wrap;rounded=0;" parent="1" vertex="1">
          <mxGeometry x="2450.2400000000002" y="206" width="20" height="7" as="geometry" />
        </mxCell>
        <mxCell id="ojxChSwKFFNu95mM_So2-24" value="4" style="text;html=1;strokeColor=none;fillColor=none;align=center;verticalAlign=middle;whiteSpace=wrap;rounded=0;" parent="1" vertex="1">
          <mxGeometry x="2470.24" y="225" width="20" height="7" as="geometry" />
        </mxCell>
        <mxCell id="ojxChSwKFFNu95mM_So2-25" value="" style="endArrow=none;html=1;rounded=0;" parent="1" edge="1">
          <mxGeometry width="50" height="50" relative="1" as="geometry">
            <mxPoint x="2464.2400000000002" y="220" as="sourcePoint" />
            <mxPoint x="2470.2400000000002" y="212" as="targetPoint" />
          </mxGeometry>
        </mxCell>
        <mxCell id="ojxChSwKFFNu95mM_So2-26" value="" style="endArrow=none;html=1;rounded=0;" parent="1" edge="1">
          <mxGeometry width="50" height="50" relative="1" as="geometry">
            <mxPoint x="2476.24" y="226" as="sourcePoint" />
            <mxPoint x="2470.24" y="220" as="targetPoint" />
          </mxGeometry>
        </mxCell>
        <mxCell id="ojxChSwKFFNu95mM_So2-27" value="" style="endArrow=none;html=1;rounded=0;fillColor=#000000;" parent="1" edge="1">
          <mxGeometry width="50" height="50" relative="1" as="geometry">
            <mxPoint x="2544.1099999999997" y="122" as="sourcePoint" />
            <mxPoint x="2544.2799999999997" y="162" as="targetPoint" />
          </mxGeometry>
        </mxCell>
        <mxCell id="ojxChSwKFFNu95mM_So2-28" value="" style="verticalLabelPosition=bottom;verticalAlign=top;html=1;shape=mxgraph.basic.half_circle;rotation=-90;fillColor=#000000;points=[[0.5,0,0,0,0],[0.5,1,0,0,0]];" parent="1" vertex="1">
          <mxGeometry x="2542" y="125" width="16" height="11" as="geometry" />
        </mxCell>
        <mxCell id="ojxChSwKFFNu95mM_So2-29" value="00004 Где-либо - Здеся, 1 путь" style="text;html=1;strokeColor=none;fillColor=none;align=center;verticalAlign=middle;whiteSpace=wrap;rounded=0;fontSize=37;" parent="1" vertex="1">
          <mxGeometry x="1800" y="40" width="780" height="30" as="geometry" />
        </mxCell>
        <mxCell id="ojxChSwKFFNu95mM_So2-30" value="1" style="text;html=1;strokeColor=none;fillColor=none;align=center;verticalAlign=middle;whiteSpace=wrap;rounded=0;" parent="1" vertex="1">
          <mxGeometry x="2700" y="224.5" width="20" height="7" as="geometry" />
        </mxCell>
        <mxCell id="ojxChSwKFFNu95mM_So2-31" value="" style="endArrow=none;html=1;rounded=0;" parent="1" edge="1">
          <mxGeometry width="50" height="50" relative="1" as="geometry">
            <mxPoint x="2714" y="227" as="sourcePoint" />
            <mxPoint x="2720" y="220" as="targetPoint" />
          </mxGeometry>
        </mxCell>
        <mxCell id="ojxChSwKFFNu95mM_So2-33" value="110 / 80" style="rounded=0;whiteSpace=wrap;html=1;" parent="1" vertex="1">
          <mxGeometry x="240" y="370" width="1070" height="40" as="geometry" />
        </mxCell>
        <mxCell id="ojxChSwKFFNu95mM_So2-34" value="60 / 60" style="rounded=0;whiteSpace=wrap;html=1;" parent="1" vertex="1">
          <mxGeometry x="1310" y="370" width="1430" height="40" as="geometry" />
        </mxCell>
        <mxCell id="ojxChSwKFFNu95mM_So2-35" value="" style="curved=1;endArrow=none;html=1;rounded=0;endFill=0;" parent="1" edge="1">
          <mxGeometry width="50" height="50" relative="1" as="geometry">
            <mxPoint x="1635" y="340" as="sourcePoint" />
            <mxPoint x="1655" y="320" as="targetPoint" />
            <Array as="points">
              <mxPoint x="1635" y="320" />
            </Array>
          </mxGeometry>
        </mxCell>
        <mxCell id="ojxChSwKFFNu95mM_So2-36" value="" style="endArrow=none;html=1;rounded=0;" parent="1" edge="1">
          <mxGeometry width="50" height="50" relative="1" as="geometry">
            <mxPoint x="1655" y="320" as="sourcePoint" />
            <mxPoint x="1735" y="320" as="targetPoint" />
          </mxGeometry>
        </mxCell>
        <mxCell id="ojxChSwKFFNu95mM_So2-37" value="" style="curved=1;endArrow=none;html=1;rounded=0;endFill=0;" parent="1" edge="1">
          <mxGeometry width="50" height="50" relative="1" as="geometry">
            <mxPoint x="1755" y="340" as="sourcePoint" />
            <mxPoint x="1734.999999999999" y="320" as="targetPoint" />
            <Array as="points">
              <mxPoint x="1755" y="330" />
              <mxPoint x="1745" y="320" />
            </Array>
          </mxGeometry>
        </mxCell>
        <mxCell id="ojxChSwKFFNu95mM_So2-38" value="R-795, K-743, h-55" style="text;html=1;strokeColor=none;fillColor=none;align=center;verticalAlign=middle;whiteSpace=wrap;rounded=0;" parent="1" vertex="1">
          <mxGeometry x="1630" y="321" width="130" height="28" as="geometry" />
        </mxCell>
        <mxCell id="ojxChSwKFFNu95mM_So2-39" value="" style="curved=1;endArrow=none;html=1;rounded=0;endFill=0;" parent="1" edge="1">
          <mxGeometry width="50" height="50" relative="1" as="geometry">
            <mxPoint x="1310" y="340" as="sourcePoint" />
            <mxPoint x="1330" y="320" as="targetPoint" />
            <Array as="points">
              <mxPoint x="1310" y="320" />
            </Array>
          </mxGeometry>
        </mxCell>
        <mxCell id="ojxChSwKFFNu95mM_So2-40" value="" style="curved=1;endArrow=none;html=1;rounded=0;endFill=0;" parent="1" edge="1">
          <mxGeometry width="50" height="50" relative="1" as="geometry">
            <mxPoint x="1350" y="340" as="sourcePoint" />
            <mxPoint x="1329.999999999999" y="320" as="targetPoint" />
            <Array as="points">
              <mxPoint x="1350" y="330" />
              <mxPoint x="1340" y="320" />
            </Array>
          </mxGeometry>
        </mxCell>
        <mxCell id="ojxChSwKFFNu95mM_So2-41" value="" style="endArrow=none;html=1;rounded=0;" parent="1" edge="1">
          <mxGeometry width="50" height="50" relative="1" as="geometry">
            <mxPoint x="1350" y="340" as="sourcePoint" />
            <mxPoint x="1635" y="340" as="targetPoint" />
          </mxGeometry>
        </mxCell>
        <mxCell id="ojxChSwKFFNu95mM_So2-42" value="" style="endArrow=none;html=1;rounded=0;" parent="1" edge="1">
          <mxGeometry width="50" height="50" relative="1" as="geometry">
            <mxPoint x="1755" y="340" as="sourcePoint" />
            <mxPoint x="2740.4347826086955" y="340" as="targetPoint" />
          </mxGeometry>
        </mxCell>
        <mxCell id="ojxChSwKFFNu95mM_So2-43" value="380.2&lt;span style=&quot;white-space: pre;&quot;&gt;&#x9;&lt;/span&gt;&lt;span style=&quot;white-space: pre;&quot;&gt;&#x9;&lt;/span&gt;&lt;span style=&quot;white-space: pre;&quot;&gt;&#x9;&lt;span style=&quot;white-space: pre;&quot;&gt;&#x9;&lt;/span&gt;&lt;/span&gt;&lt;span style=&quot;white-space: pre;&quot;&gt;&lt;span style=&quot;white-space: pre;&quot;&gt;&#x9;&lt;/span&gt;&lt;span style=&quot;white-space: pre;&quot;&gt;&#x9;&lt;/span&gt;&lt;/span&gt;&lt;span style=&quot;white-space: pre;&quot;&gt;&#x9;&lt;/span&gt;&lt;span style=&quot;white-space: pre;&quot;&gt;&#x9;&lt;span style=&quot;white-space: pre;&quot;&gt;&#x9;&lt;/span&gt;&lt;span style=&quot;white-space: pre;&quot;&gt;&#x9;&lt;/span&gt;&lt;span style=&quot;white-space: pre;&quot;&gt;&#x9;&lt;/span&gt;&lt;span style=&quot;white-space: pre;&quot;&gt;&#x9;&lt;/span&gt;&lt;span style=&quot;white-space: pre;&quot;&gt;&#x9;&lt;/span&gt;&lt;span style=&quot;white-space: pre;&quot;&gt;&#x9;&lt;/span&gt;&lt;span style=&quot;white-space: pre;&quot;&gt;&#x9;&lt;/span&gt;&lt;/span&gt;&lt;span style=&quot;white-space: pre;&quot;&gt;&#x9;&lt;/span&gt;&lt;span style=&quot;white-space: pre;&quot;&gt;&#x9;&lt;/span&gt;&lt;span style=&quot;white-space: pre;&quot;&gt;&#x9;&lt;/span&gt;&lt;span style=&quot;white-space: pre;&quot;&gt;&#x9;&lt;/span&gt;&lt;span style=&quot;white-space: pre;&quot;&gt;&#x9;&lt;/span&gt;&lt;span style=&quot;white-space: pre;&quot;&gt;&#x9;&lt;/span&gt;380.2" style="rounded=0;whiteSpace=wrap;html=1;" parent="1" vertex="1">
          <mxGeometry x="240" y="450" width="1070" height="40" as="geometry" />
        </mxCell>
        <mxCell id="ojxChSwKFFNu95mM_So2-44" value="&lt;span style=&quot;&quot;&gt;&lt;span style=&quot;&quot;&gt;КрН октябрь-2016&amp;nbsp; &amp;nbsp;&lt;/span&gt;&lt;/span&gt;&lt;span style=&quot;&quot;&gt;&lt;span style=&quot;&quot;&gt;&amp;nbsp;&amp;nbsp;&lt;span style=&quot;&quot;&gt;&lt;span style=&quot;&quot;&gt;&amp;nbsp;&amp;nbsp;&amp;nbsp;&amp;nbsp;&lt;/span&gt;&lt;/span&gt;&lt;span style=&quot;&quot;&gt;&lt;span style=&quot;&quot;&gt;&amp;nbsp;&amp;nbsp;&amp;nbsp;&amp;nbsp;&lt;/span&gt;&lt;/span&gt;&lt;span style=&quot;&quot;&gt;&lt;span style=&quot;&quot;&gt;&amp;nbsp;&amp;nbsp;&amp;nbsp;&amp;nbsp;&lt;/span&gt;&lt;/span&gt;&lt;span style=&quot;&quot;&gt;&lt;span style=&quot;&quot;&gt;&amp;nbsp;&amp;nbsp;&amp;nbsp;&amp;nbsp;&lt;/span&gt;&lt;/span&gt;&lt;span style=&quot;&quot;&gt;&lt;span style=&quot;&quot;&gt;&amp;nbsp;&amp;nbsp;&amp;nbsp;&amp;nbsp;&lt;/span&gt;&lt;/span&gt;&lt;span style=&quot;&quot;&gt;&lt;span style=&quot;&quot;&gt;&amp;nbsp;&amp;nbsp;&amp;nbsp;&amp;nbsp;&lt;/span&gt;&lt;/span&gt;&lt;span style=&quot;&quot;&gt;&lt;span style=&quot;&quot;&gt;&amp;nbsp;&amp;nbsp;&amp;nbsp;&amp;nbsp;&lt;/span&gt;&lt;/span&gt;&amp;nbsp;&amp;nbsp;&lt;/span&gt;&lt;/span&gt;&lt;span style=&quot;&quot;&gt;&lt;span style=&quot;&quot;&gt;&amp;nbsp;&amp;nbsp;&amp;nbsp;&amp;nbsp;&lt;/span&gt;&lt;/span&gt;&lt;span style=&quot;&quot;&gt;&lt;span style=&quot;&quot;&gt;&amp;nbsp;&amp;nbsp;&amp;nbsp;&lt;span style=&quot;&quot;&gt;&lt;span style=&quot;&quot;&gt;&amp;nbsp;&amp;nbsp;&amp;nbsp;&amp;nbsp;&lt;/span&gt;&lt;/span&gt;&lt;span style=&quot;&quot;&gt;&lt;span style=&quot;&quot;&gt;&amp;nbsp;&amp;nbsp;&lt;span style=&quot;&quot;&gt;&lt;span style=&quot;&quot;&gt;&amp;nbsp;&amp;nbsp;&amp;nbsp;&amp;nbsp;&lt;/span&gt;&lt;/span&gt;&lt;span style=&quot;&quot;&gt;&lt;span style=&quot;&quot;&gt;&amp;nbsp;&amp;nbsp;&amp;nbsp;&amp;nbsp;&lt;/span&gt;&lt;/span&gt;&lt;span style=&quot;&quot;&gt;&lt;span style=&quot;&quot;&gt;&amp;nbsp;&amp;nbsp;&amp;nbsp;&amp;nbsp;&lt;/span&gt;&lt;/span&gt;&amp;nbsp;&amp;nbsp;&lt;/span&gt;&lt;/span&gt;&lt;span style=&quot;&quot;&gt;&lt;span style=&quot;&quot;&gt;&amp;nbsp;&amp;nbsp;&amp;nbsp;&amp;nbsp;&lt;/span&gt;&lt;/span&gt;&lt;span style=&quot;&quot;&gt;&lt;span style=&quot;&quot;&gt;&amp;nbsp;&lt;span style=&quot;&quot;&gt;&lt;span style=&quot;&quot;&gt;&amp;nbsp;&amp;nbsp;&amp;nbsp;&amp;nbsp;&lt;/span&gt;&lt;/span&gt;&lt;span style=&quot;&quot;&gt;&lt;span style=&quot;&quot;&gt;&amp;nbsp;&amp;nbsp;&amp;nbsp;&amp;nbsp;&lt;/span&gt;&lt;span style=&quot;&quot;&gt;&lt;span style=&quot;&quot;&gt;&amp;nbsp;&amp;nbsp;&amp;nbsp;&amp;nbsp;&lt;/span&gt;&lt;/span&gt;&lt;/span&gt;&lt;span style=&quot;&quot;&gt;&lt;span style=&quot;&quot;&gt;&amp;nbsp;&amp;nbsp;&amp;nbsp;&amp;nbsp;&lt;/span&gt;&lt;/span&gt;&lt;span style=&quot;&quot;&gt;&lt;span style=&quot;&quot;&gt;&amp;nbsp;&amp;nbsp;&amp;nbsp;&amp;nbsp;&lt;/span&gt;&lt;/span&gt;&amp;nbsp;&amp;nbsp;&amp;nbsp;&lt;/span&gt;&lt;/span&gt;&amp;nbsp;&lt;/span&gt;&lt;/span&gt;&lt;span style=&quot;&quot;&gt;&lt;span style=&quot;&quot;&gt;&amp;nbsp;&lt;span style=&quot;&quot;&gt;&lt;span style=&quot;&quot;&gt;&amp;nbsp;&amp;nbsp;&amp;nbsp;&amp;nbsp;&lt;/span&gt;&lt;/span&gt;&lt;span style=&quot;&quot;&gt;&lt;span style=&quot;&quot;&gt;&amp;nbsp;&amp;nbsp;&amp;nbsp;&amp;nbsp;&lt;/span&gt;&lt;/span&gt;&amp;nbsp;&amp;nbsp;&amp;nbsp;&lt;/span&gt;&lt;/span&gt;&lt;span style=&quot;&quot;&gt;&lt;span style=&quot;&quot;&gt;&amp;nbsp;&amp;nbsp;&amp;nbsp;&amp;nbsp;&lt;/span&gt;&lt;/span&gt;&lt;span style=&quot;&quot;&gt;&lt;span style=&quot;&quot;&gt;&amp;nbsp; &amp;nbsp;&amp;nbsp;&lt;/span&gt;&lt;/span&gt;КрН октябрь-2016&lt;span style=&quot;&quot;&gt;&lt;span style=&quot;&quot;&gt;&amp;nbsp;&amp;nbsp;&amp;nbsp;&lt;/span&gt;&lt;/span&gt;&lt;span style=&quot;&quot;&gt;&lt;span style=&quot;&quot;&gt;&amp;nbsp;&amp;nbsp;&amp;nbsp;&amp;nbsp;&lt;/span&gt;&lt;/span&gt;&lt;span style=&quot;&quot;&gt;&lt;span style=&quot;&quot;&gt;&amp;nbsp;&lt;span style=&quot;&quot;&gt;&lt;span style=&quot;&quot;&gt;&amp;nbsp;&amp;nbsp;&amp;nbsp;&amp;nbsp;&lt;/span&gt;&lt;/span&gt;&lt;span style=&quot;&quot;&gt;&lt;span style=&quot;&quot;&gt;&amp;nbsp;&amp;nbsp;&amp;nbsp;&amp;nbsp;&lt;/span&gt;&lt;/span&gt;&amp;nbsp;&amp;nbsp;&lt;span style=&quot;&quot;&gt;&lt;span style=&quot;&quot;&gt;&amp;nbsp;&amp;nbsp;&amp;nbsp;&amp;nbsp;&lt;/span&gt;&lt;span style=&quot;&quot;&gt;&lt;span style=&quot;&quot;&gt;&amp;nbsp;&amp;nbsp;&amp;nbsp;&amp;nbsp;&lt;/span&gt;&lt;/span&gt;&lt;span style=&quot;&quot;&gt;&lt;span style=&quot;&quot;&gt;&amp;nbsp;&amp;nbsp;&amp;nbsp;&lt;span style=&quot;&quot;&gt;&lt;span style=&quot;&quot;&gt;&amp;nbsp;&amp;nbsp;&amp;nbsp;&amp;nbsp;&lt;/span&gt;&lt;/span&gt;&lt;span style=&quot;&quot;&gt;&lt;span style=&quot;&quot;&gt;&amp;nbsp;&amp;nbsp;&amp;nbsp;&amp;nbsp;&lt;/span&gt;&lt;/span&gt;&lt;span style=&quot;&quot;&gt;&lt;span style=&quot;&quot;&gt;&amp;nbsp;&amp;nbsp;&amp;nbsp;&amp;nbsp;&lt;/span&gt;&lt;/span&gt;&lt;span style=&quot;&quot;&gt;&lt;span style=&quot;&quot;&gt;&amp;nbsp;&amp;nbsp;&amp;nbsp;&amp;nbsp;&lt;/span&gt;&lt;/span&gt;&lt;span style=&quot;&quot;&gt;&lt;span style=&quot;&quot;&gt;&amp;nbsp;&amp;nbsp;&amp;nbsp;&amp;nbsp;&lt;/span&gt;&lt;/span&gt;&amp;nbsp;&lt;/span&gt;&lt;/span&gt;&lt;span style=&quot;&quot;&gt;&lt;span style=&quot;&quot;&gt;&amp;nbsp;&amp;nbsp;&amp;nbsp;&amp;nbsp;&lt;/span&gt;&lt;/span&gt;&lt;span style=&quot;&quot;&gt;&lt;span style=&quot;&quot;&gt;&amp;nbsp;&amp;nbsp;&lt;span style=&quot;&quot;&gt;&lt;span style=&quot;&quot;&gt;&amp;nbsp;&amp;nbsp;&amp;nbsp;&amp;nbsp;&lt;/span&gt;&lt;/span&gt;&lt;span style=&quot;&quot;&gt;&lt;span style=&quot;&quot;&gt;&amp;nbsp;&amp;nbsp;&amp;nbsp;&amp;nbsp;&lt;/span&gt;&lt;/span&gt;&lt;span style=&quot;&quot;&gt;&lt;span style=&quot;&quot;&gt;&amp;nbsp;&amp;nbsp;&amp;nbsp;&amp;nbsp;&lt;/span&gt;&lt;/span&gt;&amp;nbsp;&amp;nbsp;&lt;/span&gt;&lt;/span&gt;&lt;/span&gt;&lt;span style=&quot;&quot;&gt;&lt;span style=&quot;&quot;&gt;&amp;nbsp;&amp;nbsp;&amp;nbsp;&amp;nbsp;&lt;/span&gt;&lt;/span&gt;&lt;span style=&quot;&quot;&gt;&lt;span style=&quot;&quot;&gt;&amp;nbsp;&amp;nbsp;&amp;nbsp;&amp;nbsp;&lt;/span&gt;&lt;/span&gt;&lt;span style=&quot;&quot;&gt;&lt;span style=&quot;&quot;&gt;&amp;nbsp;&amp;nbsp;&amp;nbsp;&amp;nbsp;&lt;/span&gt;&lt;/span&gt;&lt;span style=&quot;&quot;&gt;&lt;span style=&quot;&quot;&gt;&amp;nbsp;&amp;nbsp;&amp;nbsp;&amp;nbsp;&lt;/span&gt;&lt;/span&gt;&lt;span style=&quot;&quot;&gt;&lt;span style=&quot;&quot;&gt;&amp;nbsp;&amp;nbsp;&amp;nbsp;&amp;nbsp;&lt;/span&gt;&lt;/span&gt;&lt;span style=&quot;&quot;&gt;&lt;span style=&quot;&quot;&gt;&amp;nbsp;&amp;nbsp;&amp;nbsp;&amp;nbsp;&lt;/span&gt;&lt;/span&gt;&amp;nbsp;&lt;/span&gt;&lt;/span&gt;&lt;span style=&quot;&quot;&gt;&lt;span style=&quot;&quot;&gt;&amp;nbsp;&amp;nbsp;&amp;nbsp;&amp;nbsp;&lt;/span&gt;&lt;/span&gt;&lt;span style=&quot;&quot;&gt;&lt;span style=&quot;&quot;&gt;&amp;nbsp;&amp;nbsp;&amp;nbsp;&amp;nbsp;&lt;/span&gt;&lt;/span&gt;&lt;span style=&quot;&quot;&gt;&lt;span style=&quot;&quot;&gt;&amp;nbsp;&amp;nbsp;&amp;nbsp;&amp;nbsp;&lt;/span&gt;&lt;/span&gt;&lt;span style=&quot;&quot;&gt;&lt;span style=&quot;&quot;&gt;&amp;nbsp; &amp;nbsp;&amp;nbsp;&lt;/span&gt;&lt;/span&gt;КрН октябрь-2016" style="rounded=0;whiteSpace=wrap;html=1;" parent="1" vertex="1">
          <mxGeometry x="240" y="603" width="1070" height="21" as="geometry" />
        </mxCell>
        <mxCell id="ISOjWkOPrIbQd_jgG7DC-1" value="287" style="text;html=1;strokeColor=none;fillColor=none;align=center;verticalAlign=middle;whiteSpace=wrap;rounded=0;" parent="1" vertex="1">
          <mxGeometry x="246" y="285" width="20" height="10" as="geometry" />
        </mxCell>
        <mxCell id="ISOjWkOPrIbQd_jgG7DC-2" value="" style="rounded=0;whiteSpace=wrap;html=1;" parent="1" vertex="1">
          <mxGeometry x="1315" y="260" width="30" height="40" as="geometry" />
        </mxCell>
        <mxCell id="ISOjWkOPrIbQd_jgG7DC-3" value="" style="endArrow=none;html=1;rounded=0;entryX=1;entryY=1;entryDx=0;entryDy=0;" parent="1" target="ISOjWkOPrIbQd_jgG7DC-2" edge="1">
          <mxGeometry width="50" height="50" relative="1" as="geometry">
            <mxPoint x="1315.0000000000005" y="260" as="sourcePoint" />
            <mxPoint x="1415.0000000000005" y="220" as="targetPoint" />
          </mxGeometry>
        </mxCell>
        <mxCell id="ISOjWkOPrIbQd_jgG7DC-4" value="190" style="text;html=1;strokeColor=none;fillColor=none;align=center;verticalAlign=middle;whiteSpace=wrap;rounded=0;" parent="1" vertex="1">
          <mxGeometry x="1318.7000000000003" y="305" width="20" height="10" as="geometry" />
        </mxCell>
        <mxCell id="ISOjWkOPrIbQd_jgG7DC-5" value="1,1" style="text;html=1;strokeColor=none;fillColor=none;align=center;verticalAlign=middle;whiteSpace=wrap;rounded=0;" parent="1" vertex="1">
          <mxGeometry x="1318.7" y="244" width="20" height="10" as="geometry" />
        </mxCell>
        <mxCell id="ISOjWkOPrIbQd_jgG7DC-6" value="" style="rounded=0;whiteSpace=wrap;html=1;" parent="1" vertex="1">
          <mxGeometry x="1344.9999999999995" y="260" width="114" height="40" as="geometry" />
        </mxCell>
        <mxCell id="ISOjWkOPrIbQd_jgG7DC-7" value="" style="endArrow=none;html=1;rounded=0;entryX=1;entryY=1;entryDx=0;entryDy=0;" parent="1" target="ISOjWkOPrIbQd_jgG7DC-6" edge="1">
          <mxGeometry width="50" height="50" relative="1" as="geometry">
            <mxPoint x="1344.9999999999995" y="260" as="sourcePoint" />
            <mxPoint x="1444.9999999999995" y="220" as="targetPoint" />
          </mxGeometry>
        </mxCell>
        <mxCell id="ISOjWkOPrIbQd_jgG7DC-8" value="714" style="text;html=1;strokeColor=none;fillColor=none;align=center;verticalAlign=middle;whiteSpace=wrap;rounded=0;" parent="1" vertex="1">
          <mxGeometry x="1351.0799999999995" y="285" width="20" height="10" as="geometry" />
        </mxCell>
        <mxCell id="ISOjWkOPrIbQd_jgG7DC-9" value="4,7" style="text;html=1;strokeColor=none;fillColor=none;align=center;verticalAlign=middle;whiteSpace=wrap;rounded=0;" parent="1" vertex="1">
          <mxGeometry x="1429.9999999999982" y="265" width="20" height="10" as="geometry" />
        </mxCell>
        <mxCell id="ISOjWkOPrIbQd_jgG7DC-10" value="" style="rounded=0;whiteSpace=wrap;html=1;" parent="1" vertex="1">
          <mxGeometry x="1458.9999999999995" y="260" width="63" height="40" as="geometry" />
        </mxCell>
        <mxCell id="ISOjWkOPrIbQd_jgG7DC-11" value="" style="endArrow=none;html=1;rounded=0;entryX=1;entryY=1;entryDx=0;entryDy=0;" parent="1" target="ISOjWkOPrIbQd_jgG7DC-10" edge="1">
          <mxGeometry width="50" height="50" relative="1" as="geometry">
            <mxPoint x="1458.9999999999995" y="260" as="sourcePoint" />
            <mxPoint x="1558.9999999999995" y="220" as="targetPoint" />
          </mxGeometry>
        </mxCell>
        <mxCell id="ISOjWkOPrIbQd_jgG7DC-12" value="395" style="text;html=1;strokeColor=none;fillColor=none;align=center;verticalAlign=middle;whiteSpace=wrap;rounded=0;" parent="1" vertex="1">
          <mxGeometry x="1465.0799999999995" y="285" width="20" height="10" as="geometry" />
        </mxCell>
        <mxCell id="ISOjWkOPrIbQd_jgG7DC-13" value="1,3" style="text;html=1;strokeColor=none;fillColor=none;align=center;verticalAlign=middle;whiteSpace=wrap;rounded=0;" parent="1" vertex="1">
          <mxGeometry x="1499.9999999999982" y="265" width="20" height="10" as="geometry" />
        </mxCell>
        <mxCell id="ISOjWkOPrIbQd_jgG7DC-14" value="" style="rounded=0;whiteSpace=wrap;html=1;" parent="1" vertex="1">
          <mxGeometry x="1522" y="260" width="130" height="40" as="geometry" />
        </mxCell>
        <mxCell id="ISOjWkOPrIbQd_jgG7DC-15" value="" style="endArrow=none;html=1;rounded=0;entryX=1;entryY=0;entryDx=0;entryDy=0;" parent="1" target="ISOjWkOPrIbQd_jgG7DC-14" edge="1">
          <mxGeometry width="50" height="50" relative="1" as="geometry">
            <mxPoint x="1522" y="300" as="sourcePoint" />
            <mxPoint x="1572" y="250" as="targetPoint" />
          </mxGeometry>
        </mxCell>
        <mxCell id="ISOjWkOPrIbQd_jgG7DC-16" value="1,9" style="text;html=1;strokeColor=none;fillColor=none;align=center;verticalAlign=middle;whiteSpace=wrap;rounded=0;" parent="1" vertex="1">
          <mxGeometry x="1527.000000000001" y="265" width="20" height="10" as="geometry" />
        </mxCell>
        <mxCell id="ISOjWkOPrIbQd_jgG7DC-17" value="815" style="text;html=1;strokeColor=none;fillColor=none;align=center;verticalAlign=middle;whiteSpace=wrap;rounded=0;" parent="1" vertex="1">
          <mxGeometry x="1623" y="285" width="20" height="10" as="geometry" />
        </mxCell>
        <mxCell id="ISOjWkOPrIbQd_jgG7DC-18" value="" style="rounded=0;whiteSpace=wrap;html=1;" parent="1" vertex="1">
          <mxGeometry x="1652" y="260" width="200" height="40" as="geometry" />
        </mxCell>
        <mxCell id="ISOjWkOPrIbQd_jgG7DC-19" value="" style="endArrow=none;html=1;rounded=0;entryX=1;entryY=0;entryDx=0;entryDy=0;" parent="1" target="ISOjWkOPrIbQd_jgG7DC-18" edge="1">
          <mxGeometry width="50" height="50" relative="1" as="geometry">
            <mxPoint x="1652" y="300" as="sourcePoint" />
            <mxPoint x="1702" y="250" as="targetPoint" />
          </mxGeometry>
        </mxCell>
        <mxCell id="ISOjWkOPrIbQd_jgG7DC-20" value="2,3" style="text;html=1;strokeColor=none;fillColor=none;align=center;verticalAlign=middle;whiteSpace=wrap;rounded=0;" parent="1" vertex="1">
          <mxGeometry x="1657.000000000001" y="265" width="20" height="10" as="geometry" />
        </mxCell>
        <mxCell id="ISOjWkOPrIbQd_jgG7DC-21" value="1235" style="text;html=1;strokeColor=none;fillColor=none;align=center;verticalAlign=middle;whiteSpace=wrap;rounded=0;" parent="1" vertex="1">
          <mxGeometry x="1820" y="285" width="20" height="10" as="geometry" />
        </mxCell>
        <mxCell id="ISOjWkOPrIbQd_jgG7DC-22" value="" style="rounded=0;whiteSpace=wrap;html=1;" parent="1" vertex="1">
          <mxGeometry x="1852" y="260" width="98" height="40" as="geometry" />
        </mxCell>
        <mxCell id="ISOjWkOPrIbQd_jgG7DC-23" value="" style="endArrow=none;html=1;rounded=0;entryX=1;entryY=0;entryDx=0;entryDy=0;" parent="1" target="ISOjWkOPrIbQd_jgG7DC-22" edge="1">
          <mxGeometry width="50" height="50" relative="1" as="geometry">
            <mxPoint x="1852" y="300" as="sourcePoint" />
            <mxPoint x="1902" y="250" as="targetPoint" />
          </mxGeometry>
        </mxCell>
        <mxCell id="ISOjWkOPrIbQd_jgG7DC-24" value="8,3" style="text;html=1;strokeColor=none;fillColor=none;align=center;verticalAlign=middle;whiteSpace=wrap;rounded=0;" parent="1" vertex="1">
          <mxGeometry x="1857.000000000001" y="265" width="20" height="10" as="geometry" />
        </mxCell>
        <mxCell id="ISOjWkOPrIbQd_jgG7DC-25" value="613" style="text;html=1;strokeColor=none;fillColor=none;align=center;verticalAlign=middle;whiteSpace=wrap;rounded=0;" parent="1" vertex="1">
          <mxGeometry x="1920" y="285" width="20" height="10" as="geometry" />
        </mxCell>
        <mxCell id="ISOjWkOPrIbQd_jgG7DC-26" value="" style="rounded=0;whiteSpace=wrap;html=1;" parent="1" vertex="1">
          <mxGeometry x="1950" y="260" width="20" height="40" as="geometry" />
        </mxCell>
        <mxCell id="ISOjWkOPrIbQd_jgG7DC-27" value="" style="endArrow=none;html=1;rounded=0;entryX=1;entryY=0;entryDx=0;entryDy=0;" parent="1" target="ISOjWkOPrIbQd_jgG7DC-26" edge="1">
          <mxGeometry width="50" height="50" relative="1" as="geometry">
            <mxPoint x="1950" y="300" as="sourcePoint" />
            <mxPoint x="2000" y="250" as="targetPoint" />
          </mxGeometry>
        </mxCell>
        <mxCell id="ISOjWkOPrIbQd_jgG7DC-28" value="2,5" style="text;html=1;strokeColor=none;fillColor=none;align=center;verticalAlign=middle;whiteSpace=wrap;rounded=0;" parent="1" vertex="1">
          <mxGeometry x="1950.000000000001" y="244" width="20" height="10" as="geometry" />
        </mxCell>
        <mxCell id="ISOjWkOPrIbQd_jgG7DC-29" value="130" style="text;html=1;strokeColor=none;fillColor=none;align=center;verticalAlign=middle;whiteSpace=wrap;rounded=0;" parent="1" vertex="1">
          <mxGeometry x="1950" y="305" width="20" height="10" as="geometry" />
        </mxCell>
        <mxCell id="ISOjWkOPrIbQd_jgG7DC-30" value="" style="rounded=0;whiteSpace=wrap;html=1;" parent="1" vertex="1">
          <mxGeometry x="1969.9999999999998" y="260" width="65" height="40" as="geometry" />
        </mxCell>
        <mxCell id="ISOjWkOPrIbQd_jgG7DC-31" value="" style="endArrow=none;html=1;rounded=0;entryX=1;entryY=0.5;entryDx=0;entryDy=0;exitX=0;exitY=0.5;exitDx=0;exitDy=0;" parent="1" source="ISOjWkOPrIbQd_jgG7DC-30" target="ISOjWkOPrIbQd_jgG7DC-30" edge="1">
          <mxGeometry width="50" height="50" relative="1" as="geometry">
            <mxPoint x="1998.3599999999994" y="300" as="sourcePoint" />
            <mxPoint x="2048.3599999999997" y="250" as="targetPoint" />
          </mxGeometry>
        </mxCell>
        <mxCell id="ISOjWkOPrIbQd_jgG7DC-32" value="0.0" style="text;html=1;strokeColor=none;fillColor=none;align=center;verticalAlign=middle;whiteSpace=wrap;rounded=0;" parent="1" vertex="1">
          <mxGeometry x="1989.9999999999995" y="265" width="20" height="10" as="geometry" />
        </mxCell>
        <mxCell id="ISOjWkOPrIbQd_jgG7DC-33" value="409" style="text;html=1;strokeColor=none;fillColor=none;align=center;verticalAlign=middle;whiteSpace=wrap;rounded=0;" parent="1" vertex="1">
          <mxGeometry x="1992.4999999999995" y="285" width="20" height="10" as="geometry" />
        </mxCell>
        <mxCell id="ISOjWkOPrIbQd_jgG7DC-34" value="" style="rounded=0;whiteSpace=wrap;html=1;" parent="1" vertex="1">
          <mxGeometry x="2034.9999999999995" y="260" width="158" height="40" as="geometry" />
        </mxCell>
        <mxCell id="ISOjWkOPrIbQd_jgG7DC-35" value="" style="endArrow=none;html=1;rounded=0;entryX=1;entryY=1;entryDx=0;entryDy=0;" parent="1" target="ISOjWkOPrIbQd_jgG7DC-34" edge="1">
          <mxGeometry width="50" height="50" relative="1" as="geometry">
            <mxPoint x="2034.9999999999995" y="260" as="sourcePoint" />
            <mxPoint x="2134.9999999999995" y="220" as="targetPoint" />
          </mxGeometry>
        </mxCell>
        <mxCell id="ISOjWkOPrIbQd_jgG7DC-36" value="990" style="text;html=1;strokeColor=none;fillColor=none;align=center;verticalAlign=middle;whiteSpace=wrap;rounded=0;" parent="1" vertex="1">
          <mxGeometry x="2041.0799999999995" y="285" width="20" height="10" as="geometry" />
        </mxCell>
        <mxCell id="ISOjWkOPrIbQd_jgG7DC-37" value="2,9" style="text;html=1;strokeColor=none;fillColor=none;align=center;verticalAlign=middle;whiteSpace=wrap;rounded=0;" parent="1" vertex="1">
          <mxGeometry x="2169.999999999998" y="265" width="20" height="10" as="geometry" />
        </mxCell>
        <mxCell id="ISOjWkOPrIbQd_jgG7DC-38" value="" style="rounded=0;whiteSpace=wrap;html=1;" parent="1" vertex="1">
          <mxGeometry x="2192.9999999999995" y="260" width="130" height="40" as="geometry" />
        </mxCell>
        <mxCell id="ISOjWkOPrIbQd_jgG7DC-39" value="" style="endArrow=none;html=1;rounded=0;entryX=1;entryY=1;entryDx=0;entryDy=0;" parent="1" target="ISOjWkOPrIbQd_jgG7DC-38" edge="1">
          <mxGeometry width="50" height="50" relative="1" as="geometry">
            <mxPoint x="2192.9999999999995" y="260" as="sourcePoint" />
            <mxPoint x="2292.9999999999995" y="220" as="targetPoint" />
          </mxGeometry>
        </mxCell>
        <mxCell id="ISOjWkOPrIbQd_jgG7DC-40" value="784" style="text;html=1;strokeColor=none;fillColor=none;align=center;verticalAlign=middle;whiteSpace=wrap;rounded=0;" parent="1" vertex="1">
          <mxGeometry x="2199.0799999999995" y="285" width="20" height="10" as="geometry" />
        </mxCell>
        <mxCell id="ISOjWkOPrIbQd_jgG7DC-41" value="6,9" style="text;html=1;strokeColor=none;fillColor=none;align=center;verticalAlign=middle;whiteSpace=wrap;rounded=0;" parent="1" vertex="1">
          <mxGeometry x="2289.999999999998" y="265" width="20" height="10" as="geometry" />
        </mxCell>
        <mxCell id="ISOjWkOPrIbQd_jgG7DC-42" value="" style="rounded=0;whiteSpace=wrap;html=1;" parent="1" vertex="1">
          <mxGeometry x="2323" y="260" width="130" height="40" as="geometry" />
        </mxCell>
        <mxCell id="ISOjWkOPrIbQd_jgG7DC-43" value="" style="endArrow=none;html=1;rounded=0;entryX=1;entryY=0;entryDx=0;entryDy=0;" parent="1" target="ISOjWkOPrIbQd_jgG7DC-42" edge="1">
          <mxGeometry width="50" height="50" relative="1" as="geometry">
            <mxPoint x="2323" y="300" as="sourcePoint" />
            <mxPoint x="2373" y="250" as="targetPoint" />
          </mxGeometry>
        </mxCell>
        <mxCell id="ISOjWkOPrIbQd_jgG7DC-44" value="1,5" style="text;html=1;strokeColor=none;fillColor=none;align=center;verticalAlign=middle;whiteSpace=wrap;rounded=0;" parent="1" vertex="1">
          <mxGeometry x="2328.000000000001" y="265" width="20" height="10" as="geometry" />
        </mxCell>
        <mxCell id="ISOjWkOPrIbQd_jgG7DC-45" value="815" style="text;html=1;strokeColor=none;fillColor=none;align=center;verticalAlign=middle;whiteSpace=wrap;rounded=0;" parent="1" vertex="1">
          <mxGeometry x="2423" y="285" width="20" height="10" as="geometry" />
        </mxCell>
        <mxCell id="ISOjWkOPrIbQd_jgG7DC-46" value="" style="rounded=0;whiteSpace=wrap;html=1;" parent="1" vertex="1">
          <mxGeometry x="2452.9999999999995" y="260" width="90" height="40" as="geometry" />
        </mxCell>
        <mxCell id="ISOjWkOPrIbQd_jgG7DC-47" value="" style="endArrow=none;html=1;rounded=0;entryX=1;entryY=1;entryDx=0;entryDy=0;" parent="1" target="ISOjWkOPrIbQd_jgG7DC-46" edge="1">
          <mxGeometry width="50" height="50" relative="1" as="geometry">
            <mxPoint x="2452.9999999999995" y="260" as="sourcePoint" />
            <mxPoint x="2552.9999999999995" y="220" as="targetPoint" />
          </mxGeometry>
        </mxCell>
        <mxCell id="ISOjWkOPrIbQd_jgG7DC-48" value="567" style="text;html=1;strokeColor=none;fillColor=none;align=center;verticalAlign=middle;whiteSpace=wrap;rounded=0;" parent="1" vertex="1">
          <mxGeometry x="2459.0799999999995" y="285" width="20" height="10" as="geometry" />
        </mxCell>
        <mxCell id="ISOjWkOPrIbQd_jgG7DC-49" value="0,9" style="text;html=1;strokeColor=none;fillColor=none;align=center;verticalAlign=middle;whiteSpace=wrap;rounded=0;" parent="1" vertex="1">
          <mxGeometry x="2515.239999999998" y="265" width="20" height="10" as="geometry" />
        </mxCell>
        <mxCell id="ISOjWkOPrIbQd_jgG7DC-50" value="" style="rounded=0;whiteSpace=wrap;html=1;" parent="1" vertex="1">
          <mxGeometry x="2543" y="260" width="76" height="40" as="geometry" />
        </mxCell>
        <mxCell id="ISOjWkOPrIbQd_jgG7DC-51" value="" style="endArrow=none;html=1;rounded=0;entryX=1;entryY=0.5;entryDx=0;entryDy=0;exitX=0;exitY=0.5;exitDx=0;exitDy=0;" parent="1" source="ISOjWkOPrIbQd_jgG7DC-50" target="ISOjWkOPrIbQd_jgG7DC-50" edge="1">
          <mxGeometry width="50" height="50" relative="1" as="geometry">
            <mxPoint x="2571.3599999999997" y="300" as="sourcePoint" />
            <mxPoint x="2621.3599999999997" y="250" as="targetPoint" />
          </mxGeometry>
        </mxCell>
        <mxCell id="ISOjWkOPrIbQd_jgG7DC-52" value="0.0" style="text;html=1;strokeColor=none;fillColor=none;align=center;verticalAlign=middle;whiteSpace=wrap;rounded=0;" parent="1" vertex="1">
          <mxGeometry x="2570.9999999999995" y="265" width="20" height="10" as="geometry" />
        </mxCell>
        <mxCell id="ISOjWkOPrIbQd_jgG7DC-53" value="480" style="text;html=1;strokeColor=none;fillColor=none;align=center;verticalAlign=middle;whiteSpace=wrap;rounded=0;" parent="1" vertex="1">
          <mxGeometry x="2570.9999999999995" y="285" width="20" height="10" as="geometry" />
        </mxCell>
        <mxCell id="ISOjWkOPrIbQd_jgG7DC-54" value="" style="rounded=0;whiteSpace=wrap;html=1;" parent="1" vertex="1">
          <mxGeometry x="2618.9999999999995" y="260" width="117" height="40" as="geometry" />
        </mxCell>
        <mxCell id="ISOjWkOPrIbQd_jgG7DC-55" value="" style="endArrow=none;html=1;rounded=0;entryX=1;entryY=1;entryDx=0;entryDy=0;" parent="1" target="ISOjWkOPrIbQd_jgG7DC-54" edge="1">
          <mxGeometry width="50" height="50" relative="1" as="geometry">
            <mxPoint x="2618.9999999999995" y="260" as="sourcePoint" />
            <mxPoint x="2718.9999999999995" y="220" as="targetPoint" />
          </mxGeometry>
        </mxCell>
        <mxCell id="ISOjWkOPrIbQd_jgG7DC-56" value="737" style="text;html=1;strokeColor=none;fillColor=none;align=center;verticalAlign=middle;whiteSpace=wrap;rounded=0;" parent="1" vertex="1">
          <mxGeometry x="2625.0799999999995" y="285" width="20" height="10" as="geometry" />
        </mxCell>
        <mxCell id="ISOjWkOPrIbQd_jgG7DC-57" value="0,9" style="text;html=1;strokeColor=none;fillColor=none;align=center;verticalAlign=middle;whiteSpace=wrap;rounded=0;" parent="1" vertex="1">
          <mxGeometry x="2709.999999999998" y="265" width="20" height="10" as="geometry" />
        </mxCell>
        <mxCell id="ISOjWkOPrIbQd_jgG7DC-58" value="" style="rounded=0;whiteSpace=wrap;html=1;" parent="1" vertex="1">
          <mxGeometry x="1310" y="370" width="10" height="40" as="geometry" />
        </mxCell>
        <mxCell id="ISOjWkOPrIbQd_jgG7DC-59" value="40 / 40" style="text;html=1;strokeColor=none;fillColor=none;align=center;verticalAlign=middle;whiteSpace=wrap;rounded=0;" parent="1" vertex="1">
          <mxGeometry x="1250" y="350" width="130" height="28" as="geometry" />
        </mxCell>
        <mxCell id="ISOjWkOPrIbQd_jgG7DC-60" value="&lt;blockquote style=&quot;margin: 0 0 0 40px; border: none; padding: 0px;&quot;&gt;&lt;blockquote style=&quot;margin: 0 0 0 40px; border: none; padding: 0px;&quot;&gt;2,9 (815,7)&lt;span style=&quot;&quot;&gt;&lt;span style=&quot;&quot;&gt;&amp;nbsp;&amp;nbsp;&amp;nbsp;&amp;nbsp;&lt;/span&gt;&lt;/span&gt;&lt;span style=&quot;&quot;&gt;&lt;span style=&quot;&quot;&gt;&amp;nbsp;&amp;nbsp;&amp;nbsp;&amp;nbsp;&lt;/span&gt;&lt;/span&gt;&lt;span style=&quot;&quot;&gt;&lt;span style=&quot;&quot;&gt;&amp;nbsp;&amp;nbsp;&amp;nbsp;&amp;nbsp;&lt;/span&gt;&lt;span style=&quot;&quot;&gt;&lt;span style=&quot;&quot;&gt;&amp;nbsp;&amp;nbsp;&amp;nbsp;&amp;nbsp;&lt;/span&gt;&lt;/span&gt;&lt;/span&gt;&lt;span style=&quot;&quot;&gt;&lt;span style=&quot;&quot;&gt;&lt;span style=&quot;&quot;&gt;&amp;nbsp;&amp;nbsp;&amp;nbsp;&amp;nbsp;&lt;/span&gt;&lt;/span&gt;&lt;span style=&quot;&quot;&gt;&lt;span style=&quot;&quot;&gt;&amp;nbsp;&amp;nbsp;&lt;span style=&quot;&quot;&gt;&lt;span style=&quot;&quot;&gt;&amp;nbsp;&amp;nbsp;&amp;nbsp;&amp;nbsp;&lt;/span&gt;&lt;/span&gt;&lt;span style=&quot;&quot;&gt;&lt;span style=&quot;&quot;&gt;&amp;nbsp;&amp;nbsp;&lt;/span&gt;&lt;/span&gt;&lt;span style=&quot;&quot;&gt;&lt;span style=&quot;&quot;&gt;&amp;nbsp;&amp;nbsp;&lt;/span&gt;&lt;/span&gt;&lt;span style=&quot;&quot;&gt;&lt;span style=&quot;&quot;&gt;&amp;nbsp;&amp;nbsp;&amp;nbsp;&amp;nbsp;&lt;/span&gt;&lt;/span&gt;&lt;span style=&quot;&quot;&gt;&lt;span style=&quot;&quot;&gt;&amp;nbsp; &amp;nbsp; &amp;nbsp; &amp;nbsp; &amp;nbsp; &amp;nbsp; &amp;nbsp; &amp;nbsp; &amp;nbsp; &amp;nbsp; &amp;nbsp; &amp;nbsp; &amp;nbsp; &amp;nbsp; &amp;nbsp; &amp;nbsp; &amp;nbsp; &amp;nbsp; &amp;nbsp; &amp;nbsp; &amp;nbsp; &amp;nbsp; &amp;nbsp; &amp;nbsp;&amp;nbsp;&lt;/span&gt;&lt;/span&gt;&lt;span style=&quot;&quot;&gt;&lt;span style=&quot;&quot;&gt;&amp;nbsp;&amp;nbsp;&amp;nbsp;&amp;nbsp;&lt;/span&gt;&lt;/span&gt;&lt;span style=&quot;&quot;&gt;&lt;span style=&quot;&quot;&gt;&amp;nbsp;&amp;nbsp;&amp;nbsp;&amp;nbsp;&lt;/span&gt;&lt;/span&gt;&amp;nbsp;&amp;nbsp;&lt;/span&gt;&lt;/span&gt;&lt;/span&gt;&lt;span style=&quot;&quot;&gt;&lt;span style=&quot;&quot;&gt;&amp;nbsp;&amp;nbsp;&amp;nbsp;&amp;nbsp;&lt;/span&gt;&lt;/span&gt;&#x9;&lt;span style=&quot;&quot;&gt;&lt;span style=&quot;&quot;&gt;&amp;nbsp;&amp;nbsp;&amp;nbsp;&amp;nbsp;&lt;/span&gt;&lt;/span&gt;&lt;span style=&quot;&quot;&gt;&lt;/span&gt;2,9&amp;nbsp;&lt;span style=&quot;&quot;&gt;&lt;/span&gt;(815,7)&lt;span style=&quot;&quot;&gt;&lt;span style=&quot;&quot;&gt;&amp;nbsp; &amp;nbsp; &amp;nbsp; &amp;nbsp; &amp;nbsp; &amp;nbsp; &amp;nbsp; &amp;nbsp; &amp;nbsp; &amp;nbsp; &amp;nbsp; &amp;nbsp; &amp;nbsp; &amp;nbsp; &amp;nbsp; &amp;nbsp; &amp;nbsp; &amp;nbsp; &amp;nbsp; &amp;nbsp; &amp;nbsp; &amp;nbsp; &amp;nbsp; &amp;nbsp; &amp;nbsp; &amp;nbsp; &amp;nbsp; &amp;nbsp; &amp;nbsp; &amp;nbsp; &amp;nbsp; &amp;nbsp; &amp;nbsp; &amp;nbsp; &amp;nbsp; &amp;nbsp; &amp;nbsp; &amp;nbsp;&lt;/span&gt;&lt;/span&gt;&lt;span style=&quot;&quot;&gt;&lt;span style=&quot;&quot;&gt;&amp;nbsp; &amp;nbsp;&lt;/span&gt;&lt;/span&gt;&lt;span style=&quot;&quot;&gt;&lt;span style=&quot;&quot;&gt;&amp;nbsp;&amp;nbsp;&amp;nbsp;&amp;nbsp;&lt;/span&gt;&lt;/span&gt;&lt;span style=&quot;&quot;&gt;&lt;span style=&quot;&quot;&gt;&amp;nbsp;&amp;nbsp;&lt;/span&gt;&lt;/span&gt;2,9 (815,7)&lt;/blockquote&gt;&lt;/blockquote&gt;" style="rounded=0;whiteSpace=wrap;html=1;" parent="1" vertex="1">
          <mxGeometry x="1310" y="450" width="1430" height="40" as="geometry" />
        </mxCell>
        <mxCell id="ISOjWkOPrIbQd_jgG7DC-61" value="КБ, Ж/Б, 1840, Щ, 35-50" style="rounded=0;whiteSpace=wrap;html=1;" parent="1" vertex="1">
          <mxGeometry x="1360" y="563" width="160" height="40" as="geometry" />
        </mxCell>
        <mxCell id="ISOjWkOPrIbQd_jgG7DC-62" value="КБ, Ж/Б, 1883, Щ, 35-50" style="rounded=0;whiteSpace=wrap;html=1;" parent="1" vertex="1">
          <mxGeometry x="1520" y="563" width="160" height="40" as="geometry" />
        </mxCell>
        <mxCell id="ISOjWkOPrIbQd_jgG7DC-63" value="КБ, Ж/Б, 1916, Щ, 35-50" style="rounded=0;whiteSpace=wrap;html=1;" parent="1" vertex="1">
          <mxGeometry x="1680" y="563" width="160" height="40" as="geometry" />
        </mxCell>
        <mxCell id="ISOjWkOPrIbQd_jgG7DC-64" value="КБ, Ж/Б, 1840, Щ, 35-50" style="rounded=0;whiteSpace=wrap;html=1;" parent="1" vertex="1">
          <mxGeometry x="1840" y="563" width="160" height="40" as="geometry" />
        </mxCell>
        <mxCell id="ISOjWkOPrIbQd_jgG7DC-65" value="КБ, Ж/Б, 1840, Щ, 35-50" style="rounded=0;whiteSpace=wrap;html=1;" parent="1" vertex="1">
          <mxGeometry x="2000" y="563" width="160" height="40" as="geometry" />
        </mxCell>
        <mxCell id="ISOjWkOPrIbQd_jgG7DC-66" value="КБ, Ж/Б, 1840, Щ, 35-50" style="rounded=0;whiteSpace=wrap;html=1;" parent="1" vertex="1">
          <mxGeometry x="2160" y="563" width="160" height="40" as="geometry" />
        </mxCell>
        <mxCell id="ISOjWkOPrIbQd_jgG7DC-67" value="КБ, Ж/Б, 1840, Щ, 35-50" style="rounded=0;whiteSpace=wrap;html=1;" parent="1" vertex="1">
          <mxGeometry x="2320" y="563" width="160" height="40" as="geometry" />
        </mxCell>
        <mxCell id="ISOjWkOPrIbQd_jgG7DC-68" value="КБ, Ж/Б, 1840, Щ, 35-50" style="rounded=0;whiteSpace=wrap;html=1;" parent="1" vertex="1">
          <mxGeometry x="2479.08" y="563" width="160" height="40" as="geometry" />
        </mxCell>
        <mxCell id="ISOjWkOPrIbQd_jgG7DC-69" value="КБ, Ж/Б, 1150, Щ, 35-50" style="rounded=0;whiteSpace=wrap;html=1;" parent="1" vertex="1">
          <mxGeometry x="2639.08" y="563" width="100.92" height="40" as="geometry" />
        </mxCell>
        <mxCell id="ISOjWkOPrIbQd_jgG7DC-70" value="&lt;span style=&quot;&quot;&gt;&lt;span style=&quot;&quot;&gt;КрС июль-2013&amp;nbsp; &amp;nbsp;&lt;/span&gt;&lt;/span&gt;&lt;span style=&quot;&quot;&gt;&lt;span style=&quot;&quot;&gt;&amp;nbsp;&amp;nbsp;&lt;span style=&quot;&quot;&gt;&lt;span style=&quot;&quot;&gt;&amp;nbsp;&amp;nbsp;&amp;nbsp;&amp;nbsp;&lt;/span&gt;&lt;/span&gt;&lt;span style=&quot;&quot;&gt;&lt;span style=&quot;&quot;&gt;&amp;nbsp;&amp;nbsp;&amp;nbsp;&amp;nbsp;&lt;/span&gt;&lt;/span&gt;&lt;span style=&quot;&quot;&gt;&lt;span style=&quot;&quot;&gt;&amp;nbsp;&amp;nbsp;&amp;nbsp;&amp;nbsp;&lt;/span&gt;&lt;/span&gt;&lt;span style=&quot;&quot;&gt;&lt;span style=&quot;&quot;&gt;&amp;nbsp;&amp;nbsp;&amp;nbsp;&amp;nbsp;&lt;/span&gt;&lt;/span&gt;&lt;span style=&quot;&quot;&gt;&lt;span style=&quot;&quot;&gt;&amp;nbsp;&amp;nbsp;&amp;nbsp;&amp;nbsp;&lt;/span&gt;&lt;/span&gt;&lt;span style=&quot;&quot;&gt;&lt;span style=&quot;&quot;&gt;&amp;nbsp;&amp;nbsp;&amp;nbsp;&amp;nbsp;&lt;/span&gt;&lt;/span&gt;&lt;span style=&quot;&quot;&gt;&lt;span style=&quot;&quot;&gt;&amp;nbsp;&amp;nbsp;&amp;nbsp;&amp;nbsp;&lt;/span&gt;&lt;/span&gt;&amp;nbsp;&amp;nbsp;&lt;/span&gt;&lt;/span&gt;&lt;span style=&quot;&quot;&gt;&lt;span style=&quot;&quot;&gt;&amp;nbsp;&amp;nbsp;&amp;nbsp;&amp;nbsp;&lt;/span&gt;&lt;/span&gt;&lt;span style=&quot;&quot;&gt;&lt;span style=&quot;&quot;&gt;&amp;nbsp;&amp;nbsp;&amp;nbsp;&lt;span style=&quot;&quot;&gt;&lt;span style=&quot;&quot;&gt;&amp;nbsp;&amp;nbsp;&amp;nbsp;&amp;nbsp;&lt;/span&gt;&lt;/span&gt;&lt;span style=&quot;&quot;&gt;&lt;span style=&quot;&quot;&gt;&amp;nbsp;&amp;nbsp;&lt;span style=&quot;&quot;&gt;&lt;span style=&quot;&quot;&gt;&amp;nbsp;&amp;nbsp;&amp;nbsp;&amp;nbsp;&lt;/span&gt;&lt;/span&gt;&lt;span style=&quot;&quot;&gt;&lt;span style=&quot;&quot;&gt;&amp;nbsp;&amp;nbsp;&amp;nbsp;&amp;nbsp;&lt;/span&gt;&lt;/span&gt;&lt;span style=&quot;&quot;&gt;&lt;span style=&quot;&quot;&gt;&amp;nbsp;&amp;nbsp;&amp;nbsp;&amp;nbsp;&lt;/span&gt;&lt;/span&gt;&amp;nbsp;&amp;nbsp;&lt;/span&gt;&lt;/span&gt;&lt;span style=&quot;&quot;&gt;&lt;span style=&quot;&quot;&gt;&amp;nbsp;&amp;nbsp;&amp;nbsp;&amp;nbsp;&lt;/span&gt;&lt;/span&gt;&lt;span style=&quot;&quot;&gt;&lt;span style=&quot;&quot;&gt;&amp;nbsp;&lt;span style=&quot;&quot;&gt;&lt;span style=&quot;&quot;&gt;&amp;nbsp;&amp;nbsp;&amp;nbsp;&amp;nbsp;&lt;/span&gt;&lt;/span&gt;&lt;span style=&quot;&quot;&gt;&lt;span style=&quot;&quot;&gt;&amp;nbsp;&amp;nbsp;&amp;nbsp;&amp;nbsp;&lt;/span&gt;&lt;span style=&quot;&quot;&gt;&lt;span style=&quot;&quot;&gt;&amp;nbsp;&amp;nbsp;&amp;nbsp;&amp;nbsp;&lt;/span&gt;&lt;/span&gt;&lt;/span&gt;&lt;span style=&quot;&quot;&gt;&lt;span style=&quot;&quot;&gt;&amp;nbsp;&amp;nbsp;&amp;nbsp;&amp;nbsp;&lt;/span&gt;&lt;/span&gt;&lt;span style=&quot;&quot;&gt;&lt;span style=&quot;&quot;&gt;&amp;nbsp;&amp;nbsp;&amp;nbsp;&amp;nbsp;&lt;/span&gt;&lt;/span&gt;&amp;nbsp;&amp;nbsp;&amp;nbsp;&lt;/span&gt;&lt;/span&gt;&amp;nbsp;&lt;/span&gt;&lt;/span&gt;&lt;span style=&quot;&quot;&gt;&lt;span style=&quot;&quot;&gt;&amp;nbsp;&lt;span style=&quot;&quot;&gt;&lt;span style=&quot;&quot;&gt;&amp;nbsp;&amp;nbsp;&amp;nbsp;&amp;nbsp;&lt;/span&gt;&lt;/span&gt;&lt;span style=&quot;&quot;&gt;&lt;span style=&quot;&quot;&gt;&amp;nbsp;&amp;nbsp;&amp;nbsp;&amp;nbsp;&lt;/span&gt;&lt;/span&gt;&amp;nbsp;&amp;nbsp;&amp;nbsp;&lt;/span&gt;&lt;/span&gt;&lt;span style=&quot;&quot;&gt;&lt;span style=&quot;&quot;&gt;&amp;nbsp;&amp;nbsp;&amp;nbsp;&amp;nbsp;&lt;/span&gt;&lt;/span&gt;&lt;span style=&quot;&quot;&gt;&lt;span style=&quot;&quot;&gt;&amp;nbsp; &amp;nbsp;&amp;nbsp;&lt;/span&gt;&lt;/span&gt;КрС июль-2013&lt;span style=&quot;&quot;&gt;&lt;span style=&quot;&quot;&gt;&amp;nbsp;&amp;nbsp;&amp;nbsp;&lt;/span&gt;&lt;/span&gt;&lt;span style=&quot;&quot;&gt;&lt;span style=&quot;&quot;&gt;&amp;nbsp;&amp;nbsp;&amp;nbsp;&amp;nbsp;&lt;/span&gt;&lt;/span&gt;&lt;span style=&quot;&quot;&gt;&lt;span style=&quot;&quot;&gt;&amp;nbsp;&lt;span style=&quot;&quot;&gt;&lt;span style=&quot;&quot;&gt;&amp;nbsp;&amp;nbsp;&amp;nbsp;&amp;nbsp;&lt;/span&gt;&lt;/span&gt;&lt;span style=&quot;&quot;&gt;&lt;span style=&quot;&quot;&gt;&amp;nbsp;&amp;nbsp;&amp;nbsp;&amp;nbsp;&lt;/span&gt;&lt;/span&gt;&amp;nbsp;&amp;nbsp;&lt;span style=&quot;&quot;&gt;&lt;span style=&quot;&quot;&gt;&amp;nbsp;&amp;nbsp;&amp;nbsp;&amp;nbsp;&lt;/span&gt;&lt;span style=&quot;&quot;&gt;&lt;span style=&quot;&quot;&gt;&amp;nbsp;&amp;nbsp;&amp;nbsp;&amp;nbsp;&lt;/span&gt;&lt;/span&gt;&lt;span style=&quot;&quot;&gt;&lt;span style=&quot;&quot;&gt;&amp;nbsp;&amp;nbsp;&amp;nbsp;&lt;span style=&quot;&quot;&gt;&lt;span style=&quot;&quot;&gt;&amp;nbsp;&amp;nbsp;&amp;nbsp;&amp;nbsp;&lt;/span&gt;&lt;/span&gt;&lt;span style=&quot;&quot;&gt;&lt;span style=&quot;&quot;&gt;&amp;nbsp;&amp;nbsp;&amp;nbsp;&amp;nbsp;&lt;/span&gt;&lt;/span&gt;&lt;span style=&quot;&quot;&gt;&lt;span style=&quot;&quot;&gt;&amp;nbsp;&amp;nbsp;&amp;nbsp;&amp;nbsp;&lt;/span&gt;&lt;/span&gt;&lt;span style=&quot;&quot;&gt;&lt;span style=&quot;&quot;&gt;&amp;nbsp;&amp;nbsp;&amp;nbsp;&amp;nbsp;&lt;/span&gt;&lt;/span&gt;&lt;span style=&quot;&quot;&gt;&lt;span style=&quot;&quot;&gt;&amp;nbsp;&amp;nbsp;&amp;nbsp;&amp;nbsp;&lt;/span&gt;&lt;/span&gt;&amp;nbsp;&lt;/span&gt;&lt;/span&gt;&lt;span style=&quot;&quot;&gt;&lt;span style=&quot;&quot;&gt;&amp;nbsp;&amp;nbsp;&amp;nbsp;&amp;nbsp;&lt;/span&gt;&lt;/span&gt;&lt;span style=&quot;&quot;&gt;&lt;span style=&quot;&quot;&gt;&amp;nbsp;&amp;nbsp;&lt;span style=&quot;&quot;&gt;&lt;span style=&quot;&quot;&gt;&amp;nbsp;&amp;nbsp;&amp;nbsp;&amp;nbsp;&lt;/span&gt;&lt;/span&gt;&lt;span style=&quot;&quot;&gt;&lt;span style=&quot;&quot;&gt;&amp;nbsp;&amp;nbsp;&amp;nbsp;&amp;nbsp;&lt;/span&gt;&lt;/span&gt;&lt;span style=&quot;&quot;&gt;&lt;span style=&quot;&quot;&gt;&amp;nbsp;&amp;nbsp;&amp;nbsp;&amp;nbsp;&lt;/span&gt;&lt;/span&gt;&amp;nbsp;&amp;nbsp;&lt;/span&gt;&lt;/span&gt;&lt;/span&gt;&lt;span style=&quot;&quot;&gt;&lt;span style=&quot;&quot;&gt;&amp;nbsp;&amp;nbsp;&amp;nbsp;&amp;nbsp;&lt;/span&gt;&lt;/span&gt;&lt;span style=&quot;&quot;&gt;&lt;span style=&quot;&quot;&gt;&amp;nbsp;&amp;nbsp;&amp;nbsp;&amp;nbsp;&lt;/span&gt;&lt;/span&gt;&lt;span style=&quot;&quot;&gt;&lt;span style=&quot;&quot;&gt;&amp;nbsp;&amp;nbsp;&amp;nbsp;&amp;nbsp;&lt;/span&gt;&lt;/span&gt;&lt;span style=&quot;&quot;&gt;&lt;span style=&quot;&quot;&gt;&amp;nbsp;&amp;nbsp;&amp;nbsp;&amp;nbsp;&lt;/span&gt;&lt;/span&gt;&lt;span style=&quot;&quot;&gt;&lt;span style=&quot;&quot;&gt;&amp;nbsp;&amp;nbsp;&amp;nbsp;&amp;nbsp;&lt;/span&gt;&lt;/span&gt;&lt;span style=&quot;&quot;&gt;&lt;span style=&quot;&quot;&gt;&amp;nbsp;&amp;nbsp;&amp;nbsp;&amp;nbsp;&lt;/span&gt;&lt;/span&gt;&amp;nbsp;&lt;/span&gt;&lt;/span&gt;&lt;span style=&quot;&quot;&gt;&lt;span style=&quot;&quot;&gt;&amp;nbsp;&amp;nbsp;&amp;nbsp;&amp;nbsp;&lt;/span&gt;&lt;/span&gt;&lt;span style=&quot;&quot;&gt;&lt;span style=&quot;&quot;&gt;&amp;nbsp;&amp;nbsp;&amp;nbsp;&amp;nbsp;&lt;/span&gt;&lt;/span&gt;&lt;span style=&quot;&quot;&gt;&lt;span style=&quot;&quot;&gt;&amp;nbsp;&amp;nbsp;&amp;nbsp;&amp;nbsp;&lt;/span&gt;&lt;/span&gt;&lt;span style=&quot;&quot;&gt;&lt;span style=&quot;&quot;&gt;&amp;nbsp; &amp;nbsp;&amp;nbsp;&lt;/span&gt;&lt;/span&gt;КрС июль-2013" style="rounded=0;whiteSpace=wrap;html=1;" parent="1" vertex="1">
          <mxGeometry x="1310" y="603" width="1430" height="21" as="geometry" />
        </mxCell>
        <mxCell id="ISOjWkOPrIbQd_jgG7DC-71" value="--&lt;span style=&quot;white-space: pre;&quot;&gt;&#x9;&lt;/span&gt;&lt;span style=&quot;white-space: pre;&quot;&gt;&#x9;&lt;/span&gt;&lt;span style=&quot;white-space: pre;&quot;&gt;&#x9;&lt;span style=&quot;white-space: pre;&quot;&gt;&#x9;&lt;/span&gt;&lt;span style=&quot;white-space: pre;&quot;&gt;&#x9;&lt;/span&gt;&lt;span style=&quot;white-space: pre;&quot;&gt;&#x9;&lt;/span&gt;&lt;span style=&quot;white-space: pre;&quot;&gt;&#x9;&lt;/span&gt;&lt;span style=&quot;white-space: pre;&quot;&gt;&#x9;&lt;/span&gt;&lt;span style=&quot;white-space: pre;&quot;&gt;&#x9;&lt;/span&gt;&lt;span style=&quot;white-space: pre;&quot;&gt;&#x9;&lt;/span&gt;&lt;span style=&quot;white-space: pre;&quot;&gt;&#x9;&lt;/span&gt;&lt;/span&gt;&lt;span style=&quot;white-space: pre;&quot;&gt;&#x9;&lt;/span&gt;&lt;span style=&quot;white-space: pre;&quot;&gt;&#x9;&lt;/span&gt;&lt;span style=&quot;white-space: pre;&quot;&gt;&#x9;&lt;/span&gt;&lt;span style=&quot;white-space: pre;&quot;&gt;&#x9;&lt;/span&gt;&lt;span style=&quot;white-space: pre;&quot;&gt;&#x9;&lt;/span&gt;&lt;span style=&quot;white-space: pre;&quot;&gt;&#x9;&lt;/span&gt;&lt;span style=&quot;white-space: pre;&quot;&gt;&#x9;&lt;/span&gt;--&lt;span style=&quot;white-space: pre;&quot;&gt;&#x9;&lt;/span&gt;&lt;span style=&quot;white-space: pre;&quot;&gt;&#x9;&lt;/span&gt;&lt;span style=&quot;white-space: pre;&quot;&gt;&#x9;&lt;/span&gt;&lt;span style=&quot;white-space: pre;&quot;&gt;&#x9;&lt;/span&gt;&lt;span style=&quot;white-space: pre;&quot;&gt;&#x9;&lt;span style=&quot;white-space: pre;&quot;&gt;&#x9;&lt;/span&gt;&lt;span style=&quot;white-space: pre;&quot;&gt;&#x9;&lt;/span&gt;&lt;span style=&quot;white-space: pre;&quot;&gt;&#x9;&lt;/span&gt;&lt;span style=&quot;white-space: pre;&quot;&gt;&#x9;&lt;/span&gt;&lt;span style=&quot;white-space: pre;&quot;&gt;&#x9;&lt;/span&gt;&lt;span style=&quot;white-space: pre;&quot;&gt;&#x9;&lt;/span&gt;&lt;span style=&quot;white-space: pre;&quot;&gt;&#x9;&lt;/span&gt;&lt;span style=&quot;white-space: pre;&quot;&gt;&#x9;&lt;/span&gt;&lt;/span&gt;&lt;span style=&quot;white-space: pre;&quot;&gt;&#x9;&lt;/span&gt;&lt;span style=&quot;white-space: pre;&quot;&gt;&#x9;&lt;/span&gt;&lt;span style=&quot;white-space: pre;&quot;&gt;&#x9;&lt;/span&gt;&lt;span style=&quot;white-space: pre;&quot;&gt;&#x9;&lt;/span&gt;&lt;span style=&quot;white-space: pre;&quot;&gt;&#x9;&lt;/span&gt;--" style="rounded=0;whiteSpace=wrap;html=1;" parent="1" vertex="1">
          <mxGeometry x="1310" y="623" width="1430" height="20" as="geometry" />
        </mxCell>
      </root>
    </mxGraphModel>
  </diagram>
</mxfile>
